  0
SECTION
  2
HEADER
  9
$ACADVER
  1
AC1009
  9
$INSBASE
 10
0
 20
0
 30
0
  9
$EXTMIN
 10
0
 20
0
  9
$EXTMAX
 10
297
 20
210
  9
$LIMMIN
 10
0
 20
0
  9
$LIMMAX
 10
297
 20
210
  9
$LTSCALE
 40
1
  0
ENDSEC
  0
SECTION
  2
TABLES
  0
TABLE
  2
VPORT
  5
    1
100
AcDbSymbolTable
 70
    1
  0
VPORT
  5
    2
100
AcDbSymbolTableRecord
100
AcDbViewportTableRecord
  2
*Active
 70
    0
 10
0
 20
0
 11
1
 21
1
 12
148.5
 22
105
 13
0
 23
0
 14
10
 24
10
 15
10
 25
10
 16
0
 26
0
 36
100
 17
0
 27
0
 37
0
 40
210
 41
1.5376
 42
50
 43
0
 44
0
 50
0
 51
0
 71
    0
 72
  100
 73
    1
 74
    3
 75
    0
 76
    0
 77
    0
 78
    0
  0
ENDTAB
  0
TABLE
  2
LTYPE
 70
     9
  0
LTYPE
  2
CONTINUOUS
 70
    64
  3
実線
 72
    65
 73
     0
 40
0.0
  0
LTYPE
  2
DASHED1
 70
    64
  3
--  --  --  --  --  --  --  --  
 72
    65
 73
     2
 40
2.5
 49
1.25
 49
-1.25
  0
LTYPE
  2
DASHED2
 70
    64
  3
----    ----    ----    ----    
 72
    65
 73
     2
 40
5.0
 49
2.5
 49
-2.5
  0
LTYPE
  2
DASHED3
 70
    64
  3
------  ------  ------  ------  
 72
    65
 73
     2
 40
5.0
 49
3.75
 49
-1.25
  0
LTYPE
  2
CENTER1
 70
    64
  3
----- - ----- - ----- - ----- - 
 72
    65
 73
     4
 40
10.0
 49
6.25
 49
-1.25
 49
1.25
 49
-1.25
  0
LTYPE
  2
CENTER2
 70
    64
  3
----------  --  ----------  --  
 72
    65
 73
     4
 40
20.0
 49
12.5
 49
-2.5
 49
2.5
 49
-2.5
  0
LTYPE
  2
PHANTOM1
 70
    64
  3
--- - - --- - - --- - - --- - - 
 72
    65
 73
     6
 40
10.0
 49
3.25
 49
-1.25
 49
1.25
 49
-1.25
 49
1.25
 49
-1.25
  0
LTYPE
  2
PHANTOM2
 70
    64
  3
--------  -  -  --------  -  -  
 72
    65
 73
     6
 40
20.0
 49
10.0
 49
-2.5
 49
1.25
 49
-2.5
 49
1.25
 49
-2.5
  0
LTYPE
  2
DOT
 70
    64
  3
-   -   -   -   -   -   -   -   
 72
    65
 73
     2
 40
2.5
 49
0.625
 49
-1.875
  0
LTYPE
  2
DUMMY
 70
    64
  3
ダミー
 72
    65
 73
     0
 40
0.0
  0
LTYPE
  2
RAND1
 70
    64
  3
ランダム線1
 72
    65
 73
     4
 40
10.0
 49
1.0
 49
-2.0
 49
3.0
 49
-4.0
  0
LTYPE
  2
RAND2
 70
    64
  3
ランダム線2
 72
    65
 73
     4
 40
14.0
 49
2.0
 49
-3.0
 49
4.0
 49
-5.0
  0
LTYPE
  2
RAND3
 70
    64
  3
ランダム線3
 72
    65
 73
     4
 40
18.0
 49
3.0
 49
-4.0
 49
5.0
 49
-6.0
  0
LTYPE
  2
RAND4
 70
    64
  3
ランダム線4
 72
    65
 73
     4
 40
22.0
 49
4.0
 49
-5.0
 49
6.0
 49
-7.0
  0
LTYPE
  2
RAND5
 70
    64
  3
ランダム線5
 72
    65
 73
     4
 40
26.0
 49
5.0
 49
-6.0
 49
7.0
 49
-8.0
  0
LTYPE
  2
LONG1
 70
    64
  3
----------  --  ----------  --  
 72
    65
 73
     4
 40
40.0
 49
32.5
 49
-2.5
 49
2.5
 49
-2.5
  0
LTYPE
  2
LONG2
 70
    64
  3
--------  -  -  --------  -  -  
 72
    65
 73
     6
 40
40.0
 49
30.0
 49
-2.5
 49
1.25
 49
-2.5
 49
1.25
 49
-2.5
  0
LTYPE
  2
LONG3
 70
    64
  3
+++++++++++++++..+++++++++++++++
 72
    65
 73
     2
 40
40.0
 49
37.5
 49
-2.5
  0
LTYPE
  2
LONG4
 70
    64
  3
+++++++++++++++..+++++++++++++++
 72
    65
 73
     2
 40
80.0
 49
75.0
 49
-5.0
  0
LTYPE
  2
LONG5
 70
    64
  3
----------  --  ----------  --  
 72
    65
 73
     4
 40
60.0
 49
37.5
 49
-7.5
 49
7.5
 49
-7.5
  0
LTYPE
  2
dashed
 70
   64
  3
-------   -------------   ------
 72
   65
 73
    2
 40
7.5
 49
6
 49
-1.5
  0
LTYPE
  2
dashed_spaced
 70
   64
  3
----        --------        ----
 72
   65
 73
    2
 40
12
 49
6
 49
-6
  0
LTYPE
  2
long_dashed_dotted
 70
   64
  3
------------- --- --------------
 72
   65
 73
    4
 40
15.25
 49
12
 49
-1.5
 49
0.25
 49
-1.5
  0
LTYPE
  2
long_dashed_double-dotted
 70
   64
  3
----------- --- --- ------------
 72
   65
 73
    6
 40
17
 49
12
 49
-1.5
 49
0.25
 49
-1.5
 49
0.25
 49
-1.5
  0
LTYPE
  2
long_dashed_triplicate-dotted
 70
   64
  3
--------- --- --- --- ----------
 72
   65
 73
    8
 40
18.75
 49
12
 49
-1.5
 49
0.25
 49
-1.5
 49
0.25
 49
-1.5
 49
0.25
 49
-1.5
  0
LTYPE
  2
dotted
 70
   64
  3
   -       -       -       -    
 72
   65
 73
    2
 40
1.75
 49
0.25
 49
-1.5
  0
LTYPE
  2
chain
 70
   64
  3
-------------- -- --------------
 72
   65
 73
    4
 40
18.5
 49
12
 49
-1.5
 49
3.5
 49
-1.5
  0
LTYPE
  2
chain_double_dash
 70
   64
  3
------------ -- -- -------------
 72
   65
 73
    6
 40
23.5
 49
12
 49
-1.5
 49
3.5
 49
-1.5
 49
3.5
 49
-1.5
  0
LTYPE
  2
dashed_dotted
 70
   64
  3
-----------     -     ----------
 72
   65
 73
    4
 40
9.25
 49
6
 49
-1.5
 49
0.25
 49
-1.5
  0
LTYPE
  2
double-dashed_dotted
 70
   64
  3
------   -----------   -   -----
 72
   65
 73
    6
 40
16.75
 49
6
 49
-1.5
 49
6
 49
-1.5
 49
0.25
 49
-1.5
  0
LTYPE
  2
dashed_double-dotted
 70
   64
  3
---------    -    -    ---------
 72
   65
 73
    6
 40
11
 49
6
 49
-1.5
 49
0.25
 49
-1.5
 49
0.25
 49
-1.5
  0
LTYPE
  2
double-dashed_double-dotted
 70
   64
  3
-----   ---------   -   -   ----
 72
   65
 73
    8
 40
18.5
 49
6
 49
-1.5
 49
6
 49
-1.5
 49
0.25
 49
-1.5
 49
0.25
 49
-1.5
  0
LTYPE
  2
dashed_triplicate-dotted
 70
   64
  3
-------    -    -    -    ------
 72
   65
 73
    8
 40
12.75
 49
6
 49
-1.5
 49
0.25
 49
-1.5
 49
0.25
 49
-1.5
 49
0.25
 49
-1.5
  0
LTYPE
  2
double-dashed_triplicate-dotted
 70
   64
  3
-----  ---------  -  -  -  -----
 72
   65
 73
   10
 40
20.25
 49
6
 49
-1.5
 49
6
 49
-1.5
 49
0.25
 49
-1.5
 49
0.25
 49
-1.5
 49
0.25
 49
-1.5
  0
LTYPE
  2
undefined
 70
   64
  3
--------------------------------
 72
   65
 73
    0
 40
0
  0
LTYPE
  2
_
 70
   64
  3
                                
 72
   65
 73
    0
 40
0
  0
LTYPE
  2
__18
 70
   64
  3
                                
 72
   65
 73
    0
 40
0
  0
LTYPE
  2
__19
 70
   64
  3
                                
 72
   65
 73
    0
 40
0
  0
LTYPE
  2
__20
 70
   64
  3
                                
 72
   65
 73
    0
 40
0
  0
LTYPE
  2
__21
 70
   64
  3
                                
 72
   65
 73
    0
 40
0
  0
LTYPE
  2
__22
 70
   64
  3
                                
 72
   65
 73
    0
 40
0
  0
LTYPE
  2
__23
 70
   64
  3
                                
 72
   65
 73
    0
 40
0
  0
LTYPE
  2
__24
 70
   64
  3
                                
 72
   65
 73
    0
 40
0
  0
LTYPE
  2
__25
 70
   64
  3
                                
 72
   65
 73
    0
 40
0
  0
LTYPE
  2
__26
 70
   64
  3
                                
 72
   65
 73
    0
 40
0
  0
LTYPE
  2
__27
 70
   64
  3
                                
 72
   65
 73
    0
 40
0
  0
LTYPE
  2
__28
 70
   64
  3
                                
 72
   65
 73
    0
 40
0
  0
LTYPE
  2
__29
 70
   64
  3
                                
 72
   65
 73
    0
 40
0
  0
LTYPE
  2
__30
 70
   64
  3
                                
 72
   65
 73
    0
 40
0
  0
LTYPE
  2
__31
 70
   64
  3
                                
 72
   65
 73
    0
 40
0
  0
LTYPE
  2
__32
 70
   64
  3
                                
 72
   65
 73
    0
 40
0
  0
ENDTAB
  0
TABLE
  2
STYLE
  5
3
100
AcDbSymbolTable
 70
     1
  0
STYLE
  5
10
100
AcDbSymbolTableRecord
100
AcDbTextStyleTableRecord
  2
STANDARD
 70
     0
 40
0.0
 41
1.0
 50
0.0
 71
     0
 42
0.2
  3
txt
  4
bigfont.shx
  0
STYLE
  5
26
100
AcDbSymbolTableRecord
100
AcDbTextStyleTableRecord
  2
TATEGAKI
 70
    68
 40
0.0
 41
1.0
 50
0.0
 71
     0
 42
1.0
  3
txt
  4
bigfont.shx
  0
ENDTAB
  0
TABLE
  2
LAYER
 70
    2
  0
LAYER
  2
_0-1_
 70
   64
 62
    7
  6
CONTINUOUS
  0
LAYER
  2
ADD_LINE
 70
   64
 62
    7
  6
CONTINUOUS
  0
ENDTAB
  0
ENDSEC
  0
SECTION
  2
BLOCKS
  0
ENDSEC
  0
SECTION
  2
ENTITIES
  0
CIRCLE
  8
_0-1_
  6
CONTINUOUS
 62
  178
 10
129.88970442075506
 20
90.460648151751385
 40
2
  0
LINE
  8
_0-1_
  6
CONTINUOUS
 62
  178
 10
144.38970442075509
 20
67.460648151751385
 11
144.38970442075509
 21
64.460648151751385
  0
LINE
  8
_0-1_
  6
CONTINUOUS
 62
  178
 10
149.38970442075506
 20
93.460648151751385
 11
149.38970442075506
 21
48.460648151751392
  0
LINE
  8
_0-1_
  6
CONTINUOUS
 62
  178
 10
133.55164393743726
 20
122.20336815164661
 11
122.38970442075506
 21
102.87032179774224
  0
ARC
  8
_0-1_
  6
CONTINUOUS
 62
  178
 10
115.38970442075506
 20
93.460648151751385
 40
34
 50
0
 51
57.712041667120701
  0
LINE
  8
_0-1_
  6
CONTINUOUS
 62
  178
 10
122.38970442075506
 20
102.87032179774224
 11
122.38970442075506
 21
36.050974505760521
  0
LINE
  8
_0-1_
  6
CONTINUOUS
 62
  178
 10
122.38970442075506
 20
36.050974505760521
 11
140.24417447664924
 21
25.260318019603246
  0
ARC
  8
_0-1_
  6
CONTINUOUS
 62
  178
 10
115.38970442075506
 20
48.460648151751392
 40
34
 50
316.97145405748028
 51
0
  0
LINE
  8
_0-1_
  6
CONTINUOUS
 62
  178
 10
137.38970442075506
 20
100.46064815175138
 11
137.38970442075506
 21
97.460648151751385
  0
LINE
  8
_0-1_
  6
CONTINUOUS
 62
  178
 10
137.38970442075506
 20
97.460648151751385
 11
129.88970442075506
 21
97.460648151751385
  0
LINE
  8
_0-1_
  6
CONTINUOUS
 62
  178
 10
129.88970442075506
 20
97.460648151751385
 11
129.88970442075506
 21
100.46064815175138
  0
LINE
  8
_0-1_
  6
CONTINUOUS
 62
  178
 10
129.88970442075506
 20
100.46064815175138
 11
137.38970442075506
 21
100.46064815175138
  0
LINE
  8
_0-1_
  6
CONTINUOUS
 62
  178
 10
137.38970442075506
 20
41.460648151751392
 11
137.38970442075506
 21
38.460648151751385
  0
LINE
  8
_0-1_
  6
CONTINUOUS
 62
  178
 10
137.38970442075506
 20
38.460648151751385
 11
129.88970442075506
 21
38.460648151751385
  0
LINE
  8
_0-1_
  6
CONTINUOUS
 62
  178
 10
129.88970442075506
 20
38.460648151751385
 11
129.88970442075506
 21
41.460648151751392
  0
LINE
  8
_0-1_
  6
CONTINUOUS
 62
  178
 10
129.88970442075506
 20
41.460648151751392
 11
137.38970442075506
 21
41.460648151751392
  0
LINE
  8
_0-1_
  6
CONTINUOUS
 62
  178
 10
144.38970442075509
 20
67.460648151751385
 11
134.38970442075506
 21
67.460648151751385
  0
LINE
  8
_0-1_
  6
CONTINUOUS
 62
  178
 10
134.38970442075506
 20
67.460648151751385
 11
134.38970442075506
 21
64.460648151751385
  0
LINE
  8
_0-1_
  6
CONTINUOUS
 62
  178
 10
134.38970442075506
 20
64.460648151751385
 11
144.38970442075509
 21
64.460648151751385
  0
CIRCLE
  8
_0-1_
  6
CONTINUOUS
 62
  178
 10
125.38970442075506
 20
90.460648151751385
 40
0.6999999999999999
  0
CIRCLE
  8
_0-1_
  6
CONTINUOUS
 62
  178
 10
134.38970442075506
 20
90.460648151751385
 40
0.6999999999999999
  0
CIRCLE
  8
_0-1_
  6
CONTINUOUS
 62
  178
 10
129.88970442075506
 20
48.460648151751392
 40
1.1999999999999999
  0
LINE
  8
_0-1_
  6
CONTINUOUS
 62
  178
 10
150.88759830099832
 20
110.50202785518031
 11
150.88759830099832
 21
43.682680563198594
  0
LINE
  8
_0-1_
  6
CONTINUOUS
 62
  178
 10
177.88759830099829
 20
98.092354209189466
 11
177.88759830099829
 21
53.092354209189458
  0
LINE
  8
_0-1_
  6
CONTINUOUS
 62
  178
 10
150.88759830099832
 20
43.682680563198594
 11
162.04953781768051
 21
24.349634209294222
  0
LINE
  8
_0-1_
  6
CONTINUOUS
 62
  178
 10
168.74206835689247
 20
121.29268434133759
 11
150.88759830099832
 21
110.50202785518031
  0
LINE
  8
_0-1_
  6
CONTINUOUS
 62
  178
 10
158.38759830099829
 20
49.092354209189458
 11
158.38759830099829
 21
46.092354209189458
  0
LINE
  8
_0-1_
  6
CONTINUOUS
 62
  178
 10
158.38759830099829
 20
46.092354209189458
 11
165.88759830099829
 21
46.092354209189458
  0
LINE
  8
_0-1_
  6
CONTINUOUS
 62
  178
 10
165.88759830099829
 20
46.092354209189458
 11
165.88759830099829
 21
49.092354209189458
  0
LINE
  8
_0-1_
  6
CONTINUOUS
 62
  178
 10
165.88759830099829
 20
49.092354209189458
 11
158.38759830099829
 21
49.092354209189458
  0
LINE
  8
_0-1_
  6
CONTINUOUS
 62
  178
 10
158.38759830099829
 20
108.09235420918945
 11
158.38759830099829
 21
105.09235420918945
  0
LINE
  8
_0-1_
  6
CONTINUOUS
 62
  178
 10
158.38759830099829
 20
105.09235420918945
 11
165.88759830099829
 21
105.09235420918945
  0
LINE
  8
_0-1_
  6
CONTINUOUS
 62
  178
 10
165.88759830099829
 20
105.09235420918945
 11
165.88759830099829
 21
108.09235420918945
  0
LINE
  8
_0-1_
  6
CONTINUOUS
 62
  178
 10
165.88759830099829
 20
108.09235420918945
 11
158.38759830099829
 21
108.09235420918945
  0
LINE
  8
_0-1_
  6
CONTINUOUS
 62
  178
 10
172.88759830099829
 20
82.092354209189466
 11
172.88759830099829
 21
79.092354209189466
  0
LINE
  8
_0-1_
  6
CONTINUOUS
 62
  178
 10
172.88759830099829
 20
79.092354209189466
 11
162.88759830099829
 21
79.092354209189466
  0
LINE
  8
_0-1_
  6
CONTINUOUS
 62
  178
 10
162.88759830099829
 20
79.092354209189466
 11
162.88759830099829
 21
82.092354209189466
  0
ARC
  8
_0-1_
  6
CONTINUOUS
 62
  178
 10
143.88759830099832
 20
98.092354209189451
 40
34
 50
0
 51
43.028545942519684
  0
ARC
  8
_0-1_
  6
CONTINUOUS
 62
  178
 10
144.20133734188721
 20
53.092354209189458
 40
33.686260959111102
 50
301.8388011688213
 51
0
  0
LINE
  8
_0-1_
  6
CONTINUOUS
 62
  178
 10
172.88759830099829
 20
82.092354209189466
 11
162.88759830099829
 21
82.092354209189466
  0
CIRCLE
  8
_0-1_
  6
CONTINUOUS
 62
  178
 10
158.38759830099829
 20
98.092354209189451
 40
2
  0
CIRCLE
  8
_0-1_
  6
CONTINUOUS
 62
  178
 10
162.88759830099829
 20
98.092354209189451
 40
0.6999999999999999
  0
CIRCLE
  8
_0-1_
  6
CONTINUOUS
 62
  178
 10
153.88759830099829
 20
98.092354209189451
 40
0.6999999999999999
  0
CIRCLE
  8
_0-1_
  6
CONTINUOUS
 62
  178
 10
158.38759830099829
 20
56.092354209189458
 40
1.1999999999999999
  0
LINE
  8
_0-1_
  6
CONTINUOUS
 62
  178
 10
138.40131123169987
 20
128.44149401165728
 11
166.11412415280193
 21
144.44149401165728
  0
LINE
  8
_0-1_
  6
CONTINUOUS
 62
  178
 10
166.11412415280193
 20
144.44149401165728
 11
169.61412415280193
 21
138.37931618516623
  0
LINE
  8
_0-1_
  6
CONTINUOUS
 62
  178
 10
169.61412415280193
 20
138.37931618516623
 11
172.21220036415525
 21
139.87931618516623
  0
LINE
  8
_0-1_
  6
CONTINUOUS
 62
  178
 10
172.21220036415525
 20
139.87931618516623
 11
175.96220036415525
 21
133.38412565678294
  0
LINE
  8
_0-1_
  6
CONTINUOUS
 62
  178
 10
175.96220036415525
 20
133.38412565678294
 11
173.36412415280193
 21
131.88412565678294
  0
LINE
  8
_0-1_
  6
CONTINUOUS
 62
  178
 10
173.36412415280193
 20
131.88412565678294
 11
176.36412415280193
 21
126.6879732340763
  0
LINE
  8
_0-1_
  6
CONTINUOUS
 62
  178
 10
176.36412415280193
 20
126.6879732340763
 11
148.6513112316999
 21
110.68797323407629
  0
LINE
  8
_0-1_
  6
CONTINUOUS
 62
  178
 10
148.6513112316999
 20
110.68797323407629
 11
145.6513112316999
 21
115.88412565678292
  0
LINE
  8
_0-1_
  6
CONTINUOUS
 62
  178
 10
145.6513112316999
 20
115.88412565678292
 11
143.05323502034656
 21
114.38412565678292
  0
LINE
  8
_0-1_
  6
CONTINUOUS
 62
  178
 10
143.05323502034656
 20
114.38412565678292
 11
139.30323502034656
 21
120.87931618516621
  0
LINE
  8
_0-1_
  6
CONTINUOUS
 62
  178
 10
139.30323502034656
 20
120.87931618516621
 11
141.90131123169987
 21
122.37931618516621
  0
LINE
  8
_0-1_
  6
CONTINUOUS
 62
  178
 10
141.90131123169987
 20
122.37931618516621
 11
138.40131123169987
 21
128.44149401165728
  0
CIRCLE
  8
_0-1_
  6
CONTINUOUS
 62
  178
 10
155.7577176922509
 20
130.37931618516623
 40
4
  0
CIRCLE
  8
_0-1_
  6
CONTINUOUS
 62
  178
 10
146.958899589801
 20
125.29931618516621
 40
1.1999999999999999
  0
CIRCLE
  8
_0-1_
  6
CONTINUOUS
 62
  178
 10
164.5565357947008
 20
135.45931618516621
 40
1.1999999999999999
  0
LINE
  8
_0-1_
  6
CONTINUOUS
 62
  178
 10
105.51927194860813
 20
138.41277658815135
 11
102.51927194860813
 21
138.41277658815135
  0
LINE
  8
_0-1_
  6
CONTINUOUS
 62
  178
 10
102.51927194860813
 20
138.41277658815135
 11
102.51927194860813
 21
130.91277658815133
  0
LINE
  8
_0-1_
  6
CONTINUOUS
 62
  178
 10
102.51927194860813
 20
130.91277658815133
 11
105.51927194860813
 21
130.91277658815133
  0
LINE
  8
_0-1_
  6
CONTINUOUS
 62
  178
 10
105.51927194860813
 20
130.91277658815133
 11
105.51927194860813
 21
123.91277658815133
  0
LINE
  8
_0-1_
  6
CONTINUOUS
 62
  178
 10
105.51927194860813
 20
123.91277658815133
 11
137.51927194860815
 21
123.91277658815133
  0
LINE
  8
_0-1_
  6
CONTINUOUS
 62
  178
 10
137.51927194860815
 20
123.91277658815133
 11
137.51927194860815
 21
130.91277658815133
  0
LINE
  8
_0-1_
  6
CONTINUOUS
 62
  178
 10
137.51927194860815
 20
130.91277658815133
 11
140.51927194860815
 21
130.91277658815133
  0
LINE
  8
_0-1_
  6
CONTINUOUS
 62
  178
 10
140.51927194860815
 20
130.91277658815133
 11
140.51927194860815
 21
138.41277658815133
  0
LINE
  8
_0-1_
  6
CONTINUOUS
 62
  178
 10
140.51927194860815
 20
138.41277658815133
 11
137.51927194860815
 21
138.41277658815133
  0
CIRCLE
  8
_0-1_
  6
CONTINUOUS
 62
  178
 10
121.51927194860813
 20
130.91277658815133
 40
4
  0
CIRCLE
  8
_0-1_
  6
CONTINUOUS
 62
  178
 10
131.67927194860811
 20
130.91277658815133
 40
1.1999999999999999
  0
CIRCLE
  8
_0-1_
  6
CONTINUOUS
 62
  178
 10
111.35927194860813
 20
130.91277658815133
 40
1.1999999999999999
  0
LINE
  8
_0-1_
  6
CONTINUOUS
 62
  178
 10
137.51927194860815
 20
138.41277658815133
 11
137.51927194860815
 21
144.41277658815135
  0
LINE
  8
_0-1_
  6
CONTINUOUS
 62
  178
 10
137.51927194860815
 20
144.41277658815135
 11
105.51927194860813
 21
144.41277658815135
  0
LINE
  8
_0-1_
  6
CONTINUOUS
 62
  178
 10
105.51927194860813
 20
144.41277658815135
 11
105.51927194860813
 21
138.41277658815135
  0
LINE
  8
_0-1_
  6
CONTINUOUS
 62
  178
 10
117.28372591006421
 20
81.97832976445396
 11
120.28372591006421
 21
81.97832976445396
  0
LINE
  8
_0-1_
  6
CONTINUOUS
 62
  178
 10
82.283725910064219
 20
81.97832976445396
 11
85.283725910064219
 21
81.97832976445396
  0
LINE
  8
_0-1_
  6
CONTINUOUS
 62
  178
 10
85.283725910064219
 20
121.97832976445396
 11
117.28372591006421
 21
121.97832976445396
  0
LINE
  8
_0-1_
  6
CONTINUOUS
 62
  178
 10
82.283725910064219
 20
118.97832976445396
 11
82.283725910064219
 21
81.97832976445396
  0
LINE
  8
_0-1_
  6
CONTINUOUS
 62
  178
 10
120.28372591006421
 20
118.97832976445396
 11
120.28372591006421
 21
81.97832976445396
  0
ARC
  8
_0-1_
  6
CONTINUOUS
 62
  178
 10
85.283725910064219
 20
118.97832976445396
 40
3
 50
90
 51
180
  0
ARC
  8
_0-1_
  6
CONTINUOUS
 62
  178
 10
117.28372591006421
 20
118.97832976445396
 40
3
 50
0
 51
90
  0
LINE
  8
_0-1_
  6
CONTINUOUS
 62
  178
 10
82.283725910064219
 20
66.978329764453945
 11
85.283725910064219
 21
66.978329764453945
  0
LINE
  8
_0-1_
  6
CONTINUOUS
 62
  178
 10
82.283725910064219
 20
76.97832976445396
 11
85.283725910064219
 21
76.97832976445396
  0
LINE
  8
_0-1_
  6
CONTINUOUS
 62
  178
 10
117.28372591006421
 20
66.978329764453945
 11
120.28372591006421
 21
66.978329764453945
  0
LINE
  8
_0-1_
  6
CONTINUOUS
 62
  178
 10
117.28372591006421
 20
76.97832976445396
 11
120.28372591006421
 21
76.97832976445396
  0
LINE
  8
_0-1_
  6
CONTINUOUS
 62
  178
 10
85.283725910064219
 20
81.97832976445396
 11
85.283725910064219
 21
76.97832976445396
  0
LINE
  8
_0-1_
  6
CONTINUOUS
 62
  178
 10
82.283725910064219
 20
76.97832976445396
 11
82.283725910064219
 21
66.978329764453945
  0
LINE
  8
_0-1_
  6
CONTINUOUS
 62
  178
 10
117.28372591006421
 20
81.97832976445396
 11
117.28372591006421
 21
76.97832976445396
  0
LINE
  8
_0-1_
  6
CONTINUOUS
 62
  178
 10
120.28372591006421
 20
76.97832976445396
 11
120.28372591006421
 21
66.978329764453945
  0
CIRCLE
  8
_0-1_
  6
CONTINUOUS
 62
  178
 10
101.28372591006421
 20
103.97832976445396
 40
1.1999999999999999
  0
CIRCLE
  8
_0-1_
  6
CONTINUOUS
 62
  178
 10
101.28372591006421
 20
85.97832976445396
 40
1.1999999999999999
  0
CIRCLE
  8
_0-1_
  6
CONTINUOUS
 62
  178
 10
85.283725910064219
 20
113.97832976445396
 40
0.6999999999999999
  0
CIRCLE
  8
_0-1_
  6
CONTINUOUS
 62
  178
 10
85.283725910064219
 20
88.97832976445396
 40
0.6999999999999999
  0
CIRCLE
  8
_0-1_
  6
CONTINUOUS
 62
  178
 10
117.28372591006421
 20
113.97832976445396
 40
0.6999999999999999
  0
CIRCLE
  8
_0-1_
  6
CONTINUOUS
 62
  178
 10
117.28372591006421
 20
88.97832976445396
 40
0.6999999999999999
  0
LINE
  8
_0-1_
  6
CONTINUOUS
 62
  178
 10
85.283725910064219
 20
66.978329764453945
 11
85.283725910064219
 21
56.47832976445396
  0
LINE
  8
_0-1_
  6
CONTINUOUS
 62
  178
 10
85.283725910064219
 20
56.47832976445396
 11
117.28372591006421
 21
56.47832976445396
  0
LINE
  8
_0-1_
  6
CONTINUOUS
 62
  178
 10
117.28372591006421
 20
56.47832976445396
 11
117.28372591006421
 21
66.978329764453945
  0
CIRCLE
  8
_0-1_
  6
CONTINUOUS
 62
  178
 10
101.28372591006421
 20
66.978329764453945
 40
8
  0
ENDSEC
  0
EOF
