G04 (created by PCBNEW (2013-07-07 BZR 4022)-stable) date 2026/01/19 10:44:08*
%MOIN*%
G04 Gerber Fmt 3.4, Leading zero omitted, Abs format*
%FSLAX34Y34*%
G01*
G70*
G90*
G04 APERTURE LIST*
%ADD10C,0.00590551*%
%ADD11C,0.00393701*%
%ADD12C,0.19685*%
%ADD13C,0.0590551*%
%ADD14R,0.0590551X0.0590551*%
%ADD15C,0.0866142*%
%ADD16C,0.0393701*%
G04 APERTURE END LIST*
G54D10*
G54D11*
X0Y0D02*
G75*
G03X0Y0I0J0D01*
G74*
G01*
X0Y0D02*
X0Y0D01*
X0Y0D02*
X0Y0D01*
X10826Y5905D02*
G75*
G03X9842Y6889I-984J0D01*
G74*
G01*
X9842Y6889D02*
G75*
G03X8858Y5905I0J-984D01*
G74*
G01*
X2952Y5905D02*
G75*
G03X1968Y6889I-984J0D01*
G74*
G01*
X1968Y6889D02*
G75*
G03X984Y5905I0J-984D01*
G74*
G01*
X2952Y5905D02*
X8858Y5905D01*
X11811Y5905D02*
X10826Y5905D01*
X0Y5905D02*
X984Y5905D01*
X11811Y0D02*
X11811Y5905D01*
X0Y0D02*
X11811Y0D01*
X0Y5905D02*
X0Y0D01*
G54D12*
X1968Y3149D03*
X9842Y3149D03*
G54D13*
X2468Y5905D03*
X1468Y5905D03*
X9342Y5905D03*
X10342Y5905D03*
G54D14*
X5118Y4921D03*
X4330Y4921D03*
X6692Y4921D03*
X7480Y4921D03*
G54D15*
X5413Y2755D03*
X6397Y2755D03*
G54D16*
X5118Y4921D02*
X5118Y3937D01*
X5413Y3641D02*
X5413Y2755D01*
X5118Y3937D02*
X5413Y3641D01*
X5118Y4921D02*
X6692Y4921D01*
X4330Y4921D02*
X3452Y4921D01*
X3452Y4921D02*
X2468Y5905D01*
X7480Y4921D02*
X8358Y4921D01*
X8358Y4921D02*
X9342Y5905D01*
M02*
