G04 (created by PCBNEW (2013-07-07 BZR 4022)-stable) date 2026/02/15 0:01:33*
%MOIN*%
G04 Gerber Fmt 3.4, Leading zero omitted, Abs format*
%FSLAX34Y34*%
G01*
G70*
G90*
G04 APERTURE LIST*
%ADD10C,0.00590551*%
%ADD11C,0.00393701*%
%ADD12C,0.00787402*%
%ADD13C,0.011811*%
%ADD14C,0.015*%
G04 APERTURE END LIST*
G54D10*
G54D11*
X0Y0D02*
G75*
G03X0Y0I0J0D01*
G74*
G01*
X0Y0D02*
X0Y0D01*
X0Y0D02*
X0Y0D01*
G54D12*
X2511Y15846D02*
X2526Y15865D01*
X2556Y15883D01*
X2631Y15883D01*
X2661Y15865D01*
X2676Y15846D01*
X2691Y15808D01*
X2691Y15771D01*
X2676Y15715D01*
X2496Y15490D01*
X2691Y15490D01*
X2886Y15883D02*
X2916Y15883D01*
X2946Y15865D01*
X2961Y15846D01*
X2976Y15808D01*
X2991Y15733D01*
X2991Y15640D01*
X2976Y15565D01*
X2961Y15527D01*
X2946Y15508D01*
X2916Y15490D01*
X2886Y15490D01*
X2856Y15508D01*
X2841Y15527D01*
X2826Y15565D01*
X2811Y15640D01*
X2811Y15733D01*
X2826Y15808D01*
X2841Y15846D01*
X2856Y15865D01*
X2886Y15883D01*
X3111Y15846D02*
X3126Y15865D01*
X3156Y15883D01*
X3231Y15883D01*
X3261Y15865D01*
X3276Y15846D01*
X3291Y15808D01*
X3291Y15771D01*
X3276Y15715D01*
X3096Y15490D01*
X3291Y15490D01*
X3561Y15883D02*
X3501Y15883D01*
X3471Y15865D01*
X3456Y15846D01*
X3426Y15790D01*
X3411Y15715D01*
X3411Y15565D01*
X3426Y15527D01*
X3441Y15508D01*
X3471Y15490D01*
X3531Y15490D01*
X3561Y15508D01*
X3576Y15527D01*
X3591Y15565D01*
X3591Y15658D01*
X3576Y15696D01*
X3561Y15715D01*
X3531Y15733D01*
X3471Y15733D01*
X3441Y15715D01*
X3426Y15696D01*
X3411Y15658D01*
X3726Y15527D02*
X3741Y15508D01*
X3726Y15490D01*
X3711Y15508D01*
X3726Y15527D01*
X3726Y15490D01*
X3981Y15696D02*
X3876Y15696D01*
X3876Y15490D02*
X3876Y15883D01*
X4026Y15883D01*
X4266Y15508D02*
X4236Y15490D01*
X4176Y15490D01*
X4146Y15508D01*
X4131Y15546D01*
X4131Y15696D01*
X4146Y15733D01*
X4176Y15752D01*
X4236Y15752D01*
X4266Y15733D01*
X4281Y15696D01*
X4281Y15658D01*
X4131Y15621D01*
X4416Y15490D02*
X4416Y15883D01*
X4416Y15733D02*
X4446Y15752D01*
X4505Y15752D01*
X4535Y15733D01*
X4550Y15715D01*
X4565Y15677D01*
X4565Y15565D01*
X4550Y15527D01*
X4535Y15508D01*
X4505Y15490D01*
X4446Y15490D01*
X4416Y15508D01*
X4700Y15527D02*
X4715Y15508D01*
X4700Y15490D01*
X4685Y15508D01*
X4700Y15527D01*
X4700Y15490D01*
X5015Y15490D02*
X4835Y15490D01*
X4925Y15490D02*
X4925Y15883D01*
X4895Y15827D01*
X4865Y15790D01*
X4835Y15771D01*
X5285Y15752D02*
X5285Y15490D01*
X5210Y15902D02*
X5135Y15621D01*
X5330Y15621D01*
X5930Y15490D02*
X5930Y15883D01*
X6080Y15696D02*
X6185Y15696D01*
X6230Y15490D02*
X6080Y15490D01*
X6080Y15883D01*
X6230Y15883D01*
X6365Y15490D02*
X6365Y15752D01*
X6365Y15715D02*
X6380Y15733D01*
X6410Y15752D01*
X6455Y15752D01*
X6485Y15733D01*
X6500Y15696D01*
X6500Y15490D01*
X6500Y15696D02*
X6515Y15733D01*
X6545Y15752D01*
X6590Y15752D01*
X6620Y15733D01*
X6635Y15696D01*
X6635Y15490D01*
X6830Y15490D02*
X6800Y15508D01*
X6785Y15527D01*
X6770Y15565D01*
X6770Y15677D01*
X6785Y15715D01*
X6800Y15733D01*
X6830Y15752D01*
X6875Y15752D01*
X6905Y15733D01*
X6920Y15715D01*
X6935Y15677D01*
X6935Y15565D01*
X6920Y15527D01*
X6905Y15508D01*
X6875Y15490D01*
X6830Y15490D01*
X7070Y15752D02*
X7070Y15490D01*
X7070Y15715D02*
X7085Y15733D01*
X7115Y15752D01*
X7160Y15752D01*
X7190Y15733D01*
X7205Y15696D01*
X7205Y15490D01*
X7400Y15490D02*
X7370Y15508D01*
X7355Y15527D01*
X7340Y15565D01*
X7340Y15677D01*
X7355Y15715D01*
X7370Y15733D01*
X7400Y15752D01*
X7445Y15752D01*
X7475Y15733D01*
X7490Y15715D01*
X7505Y15677D01*
X7505Y15565D01*
X7490Y15527D01*
X7475Y15508D01*
X7445Y15490D01*
X7400Y15490D01*
X7640Y15490D02*
X7640Y15883D01*
X7670Y15640D02*
X7760Y15490D01*
X7760Y15752D02*
X7640Y15602D01*
X8015Y15508D02*
X7985Y15490D01*
X7925Y15490D01*
X7895Y15508D01*
X7880Y15546D01*
X7880Y15696D01*
X7895Y15733D01*
X7925Y15752D01*
X7985Y15752D01*
X8015Y15733D01*
X8030Y15696D01*
X8030Y15658D01*
X7880Y15621D01*
X8165Y15752D02*
X8165Y15490D01*
X8165Y15715D02*
X8180Y15733D01*
X8210Y15752D01*
X8255Y15752D01*
X8285Y15733D01*
X8300Y15696D01*
X8300Y15490D01*
G54D13*
X2536Y16296D02*
X2536Y16886D01*
X2694Y16465D01*
X2851Y16886D01*
X2851Y16296D01*
X3301Y16886D02*
X3076Y16886D01*
X3053Y16605D01*
X3076Y16633D01*
X3121Y16661D01*
X3233Y16661D01*
X3278Y16633D01*
X3301Y16605D01*
X3323Y16549D01*
X3323Y16408D01*
X3301Y16352D01*
X3278Y16324D01*
X3233Y16296D01*
X3121Y16296D01*
X3076Y16324D01*
X3053Y16352D01*
X3458Y16886D02*
X3728Y16886D01*
X3593Y16296D02*
X3593Y16886D01*
X4088Y16296D02*
X4088Y16605D01*
X4066Y16661D01*
X4021Y16690D01*
X3931Y16690D01*
X3886Y16661D01*
X4088Y16324D02*
X4043Y16296D01*
X3931Y16296D01*
X3886Y16324D01*
X3863Y16380D01*
X3863Y16437D01*
X3886Y16493D01*
X3931Y16521D01*
X4043Y16521D01*
X4088Y16549D01*
X4313Y16690D02*
X4313Y16296D01*
X4313Y16633D02*
X4336Y16661D01*
X4381Y16690D01*
X4448Y16690D01*
X4493Y16661D01*
X4516Y16605D01*
X4516Y16296D01*
X4741Y16296D02*
X4741Y16886D01*
X4786Y16521D02*
X4921Y16296D01*
X4921Y16690D02*
X4741Y16465D01*
X5483Y16296D02*
X5483Y16886D01*
X5596Y16886D01*
X5663Y16858D01*
X5708Y16802D01*
X5731Y16746D01*
X5753Y16633D01*
X5753Y16549D01*
X5731Y16437D01*
X5708Y16380D01*
X5663Y16324D01*
X5596Y16296D01*
X5483Y16296D01*
X5956Y16296D02*
X5956Y16690D01*
X5956Y16577D02*
X5978Y16633D01*
X6001Y16661D01*
X6046Y16690D01*
X6091Y16690D01*
X6248Y16296D02*
X6248Y16690D01*
X6248Y16886D02*
X6226Y16858D01*
X6248Y16830D01*
X6271Y16858D01*
X6248Y16886D01*
X6248Y16830D01*
X6428Y16690D02*
X6541Y16296D01*
X6653Y16690D01*
X7013Y16324D02*
X6968Y16296D01*
X6878Y16296D01*
X6833Y16324D01*
X6811Y16380D01*
X6811Y16605D01*
X6833Y16661D01*
X6878Y16690D01*
X6968Y16690D01*
X7013Y16661D01*
X7035Y16605D01*
X7035Y16549D01*
X6811Y16493D01*
X7238Y16296D02*
X7238Y16690D01*
X7238Y16577D02*
X7260Y16633D01*
X7283Y16661D01*
X7328Y16690D01*
X7373Y16690D01*
G54D12*
X10714Y13967D02*
X11014Y13967D01*
X10864Y13817D02*
X10864Y14116D01*
X11707Y14191D02*
X11670Y14210D01*
X11614Y14210D01*
X11557Y14191D01*
X11520Y14154D01*
X11501Y14116D01*
X11482Y14041D01*
X11482Y13985D01*
X11501Y13910D01*
X11520Y13873D01*
X11557Y13835D01*
X11614Y13817D01*
X11651Y13817D01*
X11707Y13835D01*
X11726Y13854D01*
X11726Y13985D01*
X11651Y13985D01*
X11895Y13817D02*
X11895Y14210D01*
X12120Y13817D01*
X12120Y14210D01*
X12307Y13817D02*
X12307Y14210D01*
X12401Y14210D01*
X12457Y14191D01*
X12495Y14154D01*
X12514Y14116D01*
X12532Y14041D01*
X12532Y13985D01*
X12514Y13910D01*
X12495Y13873D01*
X12457Y13835D01*
X12401Y13817D01*
X12307Y13817D01*
X2671Y12635D02*
X2446Y12635D01*
X2559Y12635D02*
X2559Y13029D01*
X2521Y12973D01*
X2484Y12935D01*
X2446Y12917D01*
X9786Y3365D02*
X9748Y3383D01*
X9692Y3383D01*
X9636Y3365D01*
X9598Y3327D01*
X9580Y3290D01*
X9561Y3215D01*
X9561Y3158D01*
X9580Y3083D01*
X9598Y3046D01*
X9636Y3008D01*
X9692Y2990D01*
X9730Y2990D01*
X9786Y3008D01*
X9805Y3027D01*
X9805Y3158D01*
X9730Y3158D01*
X10198Y2990D02*
X10067Y3177D01*
X9973Y2990D02*
X9973Y3383D01*
X10123Y3383D01*
X10161Y3365D01*
X10179Y3346D01*
X10198Y3308D01*
X10198Y3252D01*
X10179Y3215D01*
X10161Y3196D01*
X10123Y3177D01*
X9973Y3177D01*
X10442Y3383D02*
X10517Y3383D01*
X10554Y3365D01*
X10592Y3327D01*
X10611Y3252D01*
X10611Y3121D01*
X10592Y3046D01*
X10554Y3008D01*
X10517Y2990D01*
X10442Y2990D01*
X10404Y3008D01*
X10367Y3046D01*
X10348Y3121D01*
X10348Y3252D01*
X10367Y3327D01*
X10404Y3365D01*
X10442Y3383D01*
X10723Y3383D02*
X10854Y2990D01*
X10986Y3383D01*
X11117Y3196D02*
X11248Y3196D01*
X11304Y2990D02*
X11117Y2990D01*
X11117Y3383D01*
X11304Y3383D01*
X6055Y2990D02*
X5924Y3177D01*
X5830Y2990D02*
X5830Y3383D01*
X5980Y3383D01*
X6017Y3365D01*
X6036Y3346D01*
X6055Y3308D01*
X6055Y3252D01*
X6036Y3215D01*
X6017Y3196D01*
X5980Y3177D01*
X5830Y3177D01*
X6224Y2990D02*
X6224Y3252D01*
X6224Y3383D02*
X6205Y3365D01*
X6224Y3346D01*
X6242Y3365D01*
X6224Y3383D01*
X6224Y3346D01*
X6580Y3252D02*
X6580Y2934D01*
X6561Y2896D01*
X6542Y2877D01*
X6505Y2859D01*
X6449Y2859D01*
X6411Y2877D01*
X6580Y3008D02*
X6542Y2990D01*
X6467Y2990D01*
X6430Y3008D01*
X6411Y3027D01*
X6392Y3065D01*
X6392Y3177D01*
X6411Y3215D01*
X6430Y3233D01*
X6467Y3252D01*
X6542Y3252D01*
X6580Y3233D01*
X6767Y2990D02*
X6767Y3383D01*
X6936Y2990D02*
X6936Y3196D01*
X6917Y3233D01*
X6880Y3252D01*
X6824Y3252D01*
X6786Y3233D01*
X6767Y3215D01*
X7067Y3252D02*
X7217Y3252D01*
X7124Y3383D02*
X7124Y3046D01*
X7142Y3008D01*
X7180Y2990D01*
X7217Y2990D01*
X3074Y2990D02*
X2887Y2990D01*
X2887Y3383D01*
X3355Y3008D02*
X3318Y2990D01*
X3243Y2990D01*
X3205Y3008D01*
X3187Y3046D01*
X3187Y3196D01*
X3205Y3233D01*
X3243Y3252D01*
X3318Y3252D01*
X3355Y3233D01*
X3374Y3196D01*
X3374Y3158D01*
X3187Y3121D01*
X3487Y3252D02*
X3637Y3252D01*
X3543Y2990D02*
X3543Y3327D01*
X3562Y3365D01*
X3599Y3383D01*
X3637Y3383D01*
X3712Y3252D02*
X3862Y3252D01*
X3768Y3383D02*
X3768Y3046D01*
X3787Y3008D01*
X3824Y2990D01*
X3862Y2990D01*
X12607Y6769D02*
X12607Y7163D01*
X12757Y7163D01*
X12795Y7144D01*
X12814Y7125D01*
X12832Y7088D01*
X12832Y7032D01*
X12814Y6994D01*
X12795Y6976D01*
X12757Y6957D01*
X12607Y6957D01*
X13057Y6769D02*
X13020Y6788D01*
X13001Y6807D01*
X12982Y6844D01*
X12982Y6957D01*
X13001Y6994D01*
X13020Y7013D01*
X13057Y7032D01*
X13113Y7032D01*
X13151Y7013D01*
X13170Y6994D01*
X13188Y6957D01*
X13188Y6844D01*
X13170Y6807D01*
X13151Y6788D01*
X13113Y6769D01*
X13057Y6769D01*
X13320Y7032D02*
X13395Y6769D01*
X13470Y6957D01*
X13545Y6769D01*
X13620Y7032D01*
X13920Y6788D02*
X13882Y6769D01*
X13807Y6769D01*
X13770Y6788D01*
X13751Y6826D01*
X13751Y6976D01*
X13770Y7013D01*
X13807Y7032D01*
X13882Y7032D01*
X13920Y7013D01*
X13938Y6976D01*
X13938Y6938D01*
X13751Y6901D01*
X14107Y6769D02*
X14107Y7032D01*
X14107Y6957D02*
X14126Y6994D01*
X14145Y7013D01*
X14182Y7032D01*
X14220Y7032D01*
X843Y8708D02*
X712Y8708D01*
X712Y8502D02*
X712Y8895D01*
X899Y8895D01*
X1049Y8502D02*
X1049Y8764D01*
X1049Y8689D02*
X1068Y8727D01*
X1087Y8745D01*
X1124Y8764D01*
X1162Y8764D01*
X1349Y8502D02*
X1312Y8520D01*
X1293Y8539D01*
X1274Y8577D01*
X1274Y8689D01*
X1293Y8727D01*
X1312Y8745D01*
X1349Y8764D01*
X1406Y8764D01*
X1443Y8745D01*
X1462Y8727D01*
X1481Y8689D01*
X1481Y8577D01*
X1462Y8539D01*
X1443Y8520D01*
X1406Y8502D01*
X1349Y8502D01*
X1649Y8764D02*
X1649Y8502D01*
X1649Y8727D02*
X1668Y8745D01*
X1706Y8764D01*
X1762Y8764D01*
X1799Y8745D01*
X1818Y8708D01*
X1818Y8502D01*
X1949Y8764D02*
X2099Y8764D01*
X2005Y8895D02*
X2005Y8558D01*
X2024Y8520D01*
X2062Y8502D01*
X2099Y8502D01*
X3294Y8502D02*
X3163Y8689D01*
X3069Y8502D02*
X3069Y8895D01*
X3219Y8895D01*
X3257Y8877D01*
X3276Y8858D01*
X3294Y8820D01*
X3294Y8764D01*
X3276Y8727D01*
X3257Y8708D01*
X3219Y8689D01*
X3069Y8689D01*
X3613Y8520D02*
X3576Y8502D01*
X3501Y8502D01*
X3463Y8520D01*
X3444Y8558D01*
X3444Y8708D01*
X3463Y8745D01*
X3501Y8764D01*
X3576Y8764D01*
X3613Y8745D01*
X3632Y8708D01*
X3632Y8670D01*
X3444Y8633D01*
X3969Y8502D02*
X3969Y8708D01*
X3951Y8745D01*
X3913Y8764D01*
X3838Y8764D01*
X3801Y8745D01*
X3969Y8520D02*
X3932Y8502D01*
X3838Y8502D01*
X3801Y8520D01*
X3782Y8558D01*
X3782Y8595D01*
X3801Y8633D01*
X3838Y8652D01*
X3932Y8652D01*
X3969Y8670D01*
X4157Y8502D02*
X4157Y8764D01*
X4157Y8689D02*
X4176Y8727D01*
X4194Y8745D01*
X4232Y8764D01*
X4269Y8764D01*
G54D11*
X0Y0D02*
G75*
G03X0Y0I0J0D01*
G74*
G01*
X0Y0D02*
X0Y0D01*
X0Y0D02*
X0Y0D01*
X0Y0D02*
G75*
G03X0Y0I0J0D01*
G74*
G01*
X0Y0D02*
X0Y0D01*
X0Y0D02*
X0Y0D01*
X14960Y16141D02*
G75*
G03X13779Y17322I-1181J0D01*
G74*
G01*
X1181Y17322D02*
G75*
G03X0Y16141I0J-1181D01*
G74*
G01*
X1181Y17322D02*
X13779Y17322D01*
X14960Y1574D02*
X14960Y16141D01*
X13779Y1574D02*
X14960Y1574D01*
X13779Y0D02*
X13779Y1574D01*
X1181Y0D02*
X13779Y0D01*
X1181Y1574D02*
X1181Y0D01*
X0Y1574D02*
X1181Y1574D01*
X0Y16141D02*
X0Y1574D01*
G54D14*
X13779Y8070D02*
X12991Y8070D01*
X13779Y10432D02*
X12991Y10432D01*
X12204Y10038D02*
X12204Y8464D01*
X14566Y10038D02*
X14566Y8464D01*
X8484Y2637D02*
X8484Y-492D01*
X8483Y-492D02*
X12381Y-492D01*
X12381Y-492D02*
X12381Y2637D01*
X12578Y14488D02*
X12578Y17618D01*
X12579Y17618D02*
X10256Y17618D01*
X10255Y17618D02*
X10255Y14488D01*
X2185Y2637D02*
X2185Y-492D01*
X2184Y-492D02*
X4507Y-492D01*
X4507Y-492D02*
X4507Y2637D01*
X5334Y2637D02*
X5334Y-492D01*
X5334Y-492D02*
X7657Y-492D01*
X7657Y-492D02*
X7657Y2637D01*
X2558Y13504D02*
X6692Y13504D01*
X2558Y14882D02*
X6692Y14882D01*
X6692Y13504D02*
X6692Y14882D01*
X2558Y14882D02*
X2558Y13504D01*
X2243Y7086D02*
X2243Y8051D01*
X2243Y8051D02*
X472Y8051D01*
X472Y8051D02*
X472Y5728D01*
X472Y5728D02*
X2243Y5728D01*
X2243Y5728D02*
X2243Y6692D01*
X4606Y7086D02*
X4606Y8051D01*
X4606Y8051D02*
X2835Y8051D01*
X2835Y8051D02*
X2835Y5728D01*
X2835Y5728D02*
X4606Y5728D01*
X4606Y5728D02*
X4606Y6692D01*
G54D10*
X4330Y3740D02*
X4212Y3818D01*
X4212Y3818D02*
X4212Y3661D01*
X4212Y3661D02*
X4330Y3740D01*
X5511Y4527D02*
X5511Y3740D01*
X4330Y4527D02*
X4330Y3740D01*
G54D14*
X6457Y6062D02*
X9291Y6062D01*
X9291Y6062D02*
X9291Y8110D01*
X9291Y8110D02*
X6457Y8110D01*
X6456Y6770D02*
X6456Y6062D01*
X6457Y8110D02*
X6457Y7402D01*
X6456Y6809D02*
G75*
G03X6732Y7085I0J276D01*
G74*
G01*
X6732Y7086D02*
G75*
G03X6456Y7362I-276J0D01*
G74*
G01*
M02*
