G04 (created by PCBNEW (2013-07-07 BZR 4022)-stable) date 2026/02/15 0:01:33*
%MOIN*%
G04 Gerber Fmt 3.4, Leading zero omitted, Abs format*
%FSLAX34Y34*%
G01*
G70*
G90*
G04 APERTURE LIST*
%ADD10C,0.00590551*%
%ADD11C,0.00393701*%
%ADD12C,0.1575*%
%ADD13C,0.063*%
%ADD14R,0.06X0.06*%
%ADD15C,0.0551*%
%ADD16C,0.06*%
%ADD17C,0.0433*%
%ADD18C,0.0393701*%
G04 APERTURE END LIST*
G54D10*
G54D11*
X0Y0D02*
G75*
G03X0Y0I0J0D01*
G74*
G01*
X0Y0D02*
X0Y0D01*
X0Y0D02*
X0Y0D01*
X0Y0D02*
G75*
G03X0Y0I0J0D01*
G74*
G01*
X0Y0D02*
X0Y0D01*
X0Y0D02*
X0Y0D01*
X0Y0D02*
G75*
G03X0Y0I0J0D01*
G74*
G01*
X0Y0D02*
X0Y0D01*
X0Y0D02*
X0Y0D01*
X14960Y16141D02*
G75*
G03X13779Y17322I-1181J0D01*
G74*
G01*
X1181Y17322D02*
G75*
G03X0Y16141I0J-1181D01*
G74*
G01*
X1181Y17322D02*
X13779Y17322D01*
X14960Y1574D02*
X14960Y16141D01*
X13779Y1574D02*
X14960Y1574D01*
X13779Y0D02*
X13779Y1574D01*
X1181Y0D02*
X13779Y0D01*
X1181Y1574D02*
X1181Y0D01*
X0Y1574D02*
X1181Y1574D01*
X0Y16141D02*
X0Y1574D01*
G54D12*
X13779Y14173D03*
X13779Y4330D03*
X1181Y4330D03*
X1181Y14173D03*
G54D13*
X14271Y10531D03*
X12499Y10531D03*
X14271Y7971D03*
X12499Y7971D03*
G54D14*
X9251Y1968D03*
G54D15*
X10038Y1968D03*
X10826Y1968D03*
X11614Y1968D03*
G54D16*
X11811Y15157D03*
G54D15*
X11024Y15157D03*
G54D16*
X2952Y1968D03*
G54D15*
X3739Y1968D03*
G54D16*
X6102Y1968D03*
G54D15*
X6889Y1968D03*
G54D17*
X3149Y14370D03*
X3740Y14370D03*
X4330Y14370D03*
X4921Y14370D03*
X5511Y14370D03*
X6102Y14370D03*
G54D16*
X1574Y7283D03*
G54D15*
X1574Y6496D03*
G54D16*
X3937Y7283D03*
G54D15*
X3937Y6496D03*
G54D18*
X4921Y4133D03*
M02*
