M48
;DRILL file {Pcbnew (2013-07-07 BZR 4022)-stable} date 2026/02/15 0:01:42
;FORMAT={-:-/ absolute / metric / decimal}
FMAT,2
METRIC,TZ
T1C0.400
T2C0.500
T3C0.700
T4C0.701
T5C0.813
T6C1.001
T7C2.200
%
G90
G05
M71
T1
X14.25Y24.5
X14.75Y10.75
X16.25Y13.25
X16.75Y20.5
X16.75Y16.25
X17.5Y17.
X18.75Y23.25
X20.5Y24.5
X20.5Y23.5
X20.975Y15.5
X21.5Y24.5
X22.275Y15.5
X22.925Y20.5
X23.75Y12.25
X26.Y18.75
X26.5Y29.25
X27.Y33.
X29.25Y31.5
T2
X2.35Y27.15
X8.85Y27.15
X9.Y12.4
X13.75Y17.
X19.5Y28.55
X19.675Y12.775
X20.95Y34.45
X22.45Y27.75
X23.Y33.45
X24.5Y19.75
X28.95Y15.1
T3
X12.5Y10.5
T4
X8.Y36.5
X9.501Y36.5
X11.Y36.5
X12.501Y36.5
X13.999Y36.5
X15.501Y36.5
T5
X4.Y18.5
X4.Y16.501
X7.5Y5.
X9.499Y5.
X10.Y18.5
X10.Y16.501
X15.5Y5.
X17.499Y5.
X23.5Y5.
X25.499Y5.
X27.5Y5.
X28.001Y38.5
X29.5Y5.
X30.Y38.5
T6
X31.75Y26.751
X31.75Y20.249
X36.25Y26.751
X36.25Y20.249
T7
X3.Y36.
X3.Y11.
X35.Y36.
X35.Y11.
T0
M30
