G04 (created by PCBNEW (2013-07-07 BZR 4022)-stable) date 2026/02/15 0:01:33*
%MOIN*%
G04 Gerber Fmt 3.4, Leading zero omitted, Abs format*
%FSLAX34Y34*%
G01*
G70*
G90*
G04 APERTURE LIST*
%ADD10C,0.00590551*%
%ADD11C,0.00393701*%
%ADD12C,0.1575*%
%ADD13C,0.063*%
%ADD14R,0.06X0.06*%
%ADD15C,0.0551*%
%ADD16C,0.06*%
%ADD17C,0.0433*%
%ADD18C,0.0393701*%
%ADD19C,0.023622*%
%ADD20C,0.0314961*%
%ADD21C,0.00787402*%
%ADD22C,0.019685*%
G04 APERTURE END LIST*
G54D10*
G54D11*
X0Y0D02*
G75*
G03X0Y0I0J0D01*
G74*
G01*
X0Y0D02*
X0Y0D01*
X0Y0D02*
X0Y0D01*
X0Y0D02*
G75*
G03X0Y0I0J0D01*
G74*
G01*
X0Y0D02*
X0Y0D01*
X0Y0D02*
X0Y0D01*
X0Y0D02*
G75*
G03X0Y0I0J0D01*
G74*
G01*
X0Y0D02*
X0Y0D01*
X0Y0D02*
X0Y0D01*
X14960Y16141D02*
G75*
G03X13779Y17322I-1181J0D01*
G74*
G01*
X1181Y17322D02*
G75*
G03X0Y16141I0J-1181D01*
G74*
G01*
X1181Y17322D02*
X13779Y17322D01*
X14960Y1574D02*
X14960Y16141D01*
X13779Y1574D02*
X14960Y1574D01*
X13779Y0D02*
X13779Y1574D01*
X1181Y0D02*
X13779Y0D01*
X1181Y1574D02*
X1181Y0D01*
X0Y1574D02*
X1181Y1574D01*
X0Y16141D02*
X0Y1574D01*
G54D12*
X13779Y14173D03*
X13779Y4330D03*
X1181Y4330D03*
X1181Y14173D03*
G54D13*
X14271Y10531D03*
X12499Y10531D03*
X14271Y7971D03*
X12499Y7971D03*
G54D14*
X9251Y1968D03*
G54D15*
X10038Y1968D03*
X10826Y1968D03*
X11614Y1968D03*
G54D16*
X11811Y15157D03*
G54D15*
X11024Y15157D03*
G54D16*
X2952Y1968D03*
G54D15*
X3739Y1968D03*
G54D16*
X6102Y1968D03*
G54D15*
X6889Y1968D03*
G54D17*
X3149Y14370D03*
X3740Y14370D03*
X4330Y14370D03*
X4921Y14370D03*
X5511Y14370D03*
X6102Y14370D03*
G54D16*
X1574Y7283D03*
G54D15*
X1574Y6496D03*
G54D16*
X3937Y7283D03*
G54D15*
X3937Y6496D03*
G54D18*
X4921Y4133D03*
G54D19*
X6594Y6397D03*
X6594Y8070D03*
X7381Y9153D03*
X8257Y6102D03*
X6397Y5216D03*
X5807Y4232D03*
G54D20*
X5413Y6692D03*
X8838Y10925D03*
X7677Y11240D03*
X8248Y13562D03*
X9055Y13169D03*
X925Y10688D03*
X3484Y10688D03*
X11397Y5944D03*
X3543Y4881D03*
X7746Y5029D03*
G54D19*
X10629Y12992D03*
X11515Y12401D03*
X6889Y6692D03*
X5610Y9645D03*
X8070Y9251D03*
X8070Y9645D03*
X8464Y9645D03*
X8769Y6102D03*
X10236Y7381D03*
X10433Y11515D03*
X9025Y8070D03*
X9350Y4822D03*
G54D20*
X9645Y7775D03*
G54D21*
X6594Y8070D02*
X6594Y6397D01*
X7381Y9153D02*
X7381Y6978D01*
X7381Y6978D02*
X8257Y6102D01*
X6397Y4822D02*
X6397Y5216D01*
X5807Y4232D02*
X6397Y4822D01*
X10925Y12992D02*
X11515Y12401D01*
X10629Y12992D02*
X10925Y12992D01*
X6889Y6692D02*
X6889Y8366D01*
X6889Y8366D02*
X5610Y9645D01*
X6889Y8366D02*
X5610Y9645D01*
X5314Y13976D02*
X4921Y14370D01*
X5314Y12007D02*
X5314Y13976D01*
X8070Y9251D02*
X5314Y12007D01*
X5511Y12204D02*
X5511Y14370D01*
X8070Y9645D02*
X5511Y12204D01*
X8769Y6102D02*
X8769Y7864D01*
X8769Y7864D02*
X8464Y8169D01*
X8464Y9645D02*
X8464Y8169D01*
X10236Y7381D02*
X11909Y7381D01*
X11909Y7381D02*
X12499Y7971D01*
X11416Y10531D02*
X12499Y10531D01*
X10433Y11515D02*
X11416Y10531D01*
X9025Y8070D02*
X9025Y5147D01*
X9025Y5147D02*
X9350Y4822D01*
G54D22*
X9645Y7775D02*
X9645Y5314D01*
X10038Y4921D02*
X10038Y1968D01*
X9645Y5314D02*
X10038Y4921D01*
X1574Y7283D02*
X3937Y7283D01*
G54D10*
G36*
X14724Y1811D02*
X14705Y1811D01*
X14705Y7888D01*
X14705Y10448D01*
X14704Y10620D01*
X14688Y10659D01*
X14688Y14337D01*
X14556Y14672D01*
X14537Y14699D01*
X14425Y14791D01*
X14397Y14763D01*
X14397Y14819D01*
X14306Y14931D01*
X13975Y15075D01*
X13615Y15081D01*
X13280Y14950D01*
X13252Y14931D01*
X13161Y14819D01*
X13779Y14201D01*
X14397Y14819D01*
X14397Y14763D01*
X13807Y14173D01*
X14425Y13555D01*
X14537Y13646D01*
X14681Y13976D01*
X14688Y14337D01*
X14688Y10659D01*
X14640Y10775D01*
X14576Y10809D01*
X14548Y10781D01*
X14548Y10836D01*
X14515Y10900D01*
X14397Y10948D01*
X14397Y13527D01*
X13779Y14145D01*
X13751Y14117D01*
X13751Y14173D01*
X13133Y14791D01*
X13021Y14699D01*
X12877Y14369D01*
X12870Y14009D01*
X13002Y13674D01*
X13021Y13646D01*
X13133Y13555D01*
X13751Y14173D01*
X13751Y14117D01*
X13161Y13527D01*
X13252Y13414D01*
X13583Y13270D01*
X13943Y13264D01*
X14278Y13396D01*
X14306Y13414D01*
X14397Y13527D01*
X14397Y10948D01*
X14355Y10965D01*
X14183Y10964D01*
X14028Y10900D01*
X13994Y10836D01*
X14271Y10559D01*
X14548Y10836D01*
X14548Y10781D01*
X14299Y10531D01*
X14576Y10254D01*
X14640Y10288D01*
X14705Y10448D01*
X14705Y7888D01*
X14704Y8060D01*
X14640Y8215D01*
X14576Y8249D01*
X14548Y8221D01*
X14548Y8276D01*
X14548Y10227D01*
X14271Y10504D01*
X14243Y10476D01*
X14243Y10531D01*
X13966Y10809D01*
X13903Y10775D01*
X13838Y10615D01*
X13839Y10443D01*
X13903Y10288D01*
X13966Y10254D01*
X14243Y10531D01*
X14243Y10476D01*
X13994Y10227D01*
X14028Y10163D01*
X14187Y10098D01*
X14360Y10099D01*
X14515Y10163D01*
X14548Y10227D01*
X14548Y8276D01*
X14515Y8340D01*
X14355Y8405D01*
X14183Y8404D01*
X14028Y8340D01*
X13994Y8276D01*
X14271Y7999D01*
X14548Y8276D01*
X14548Y8221D01*
X14299Y7971D01*
X14576Y7694D01*
X14640Y7728D01*
X14705Y7888D01*
X14705Y1811D01*
X14688Y1811D01*
X14688Y4494D01*
X14556Y4829D01*
X14548Y4840D01*
X14548Y7667D01*
X14271Y7944D01*
X14243Y7916D01*
X14243Y7971D01*
X13966Y8249D01*
X13903Y8215D01*
X13838Y8055D01*
X13839Y7883D01*
X13903Y7728D01*
X13966Y7694D01*
X14243Y7971D01*
X14243Y7916D01*
X13994Y7667D01*
X14028Y7603D01*
X14187Y7538D01*
X14360Y7539D01*
X14515Y7603D01*
X14548Y7667D01*
X14548Y4840D01*
X14537Y4857D01*
X14425Y4948D01*
X14397Y4920D01*
X14397Y4976D01*
X14306Y5089D01*
X13975Y5232D01*
X13615Y5239D01*
X13280Y5107D01*
X13252Y5089D01*
X13161Y4976D01*
X13779Y4358D01*
X14397Y4976D01*
X14397Y4920D01*
X13807Y4330D01*
X14425Y3712D01*
X14537Y3804D01*
X14681Y4134D01*
X14688Y4494D01*
X14688Y1811D01*
X14397Y1811D01*
X14397Y3684D01*
X13779Y4302D01*
X13751Y4275D01*
X13751Y4330D01*
X13133Y4948D01*
X13021Y4857D01*
X12933Y4655D01*
X12933Y8057D01*
X12933Y10617D01*
X12867Y10776D01*
X12745Y10898D01*
X12586Y10965D01*
X12414Y10965D01*
X12254Y10899D01*
X12229Y10874D01*
X12229Y15077D01*
X12228Y15243D01*
X12167Y15391D01*
X12105Y15423D01*
X12077Y15395D01*
X12077Y15451D01*
X12045Y15513D01*
X11891Y15576D01*
X11724Y15575D01*
X11576Y15513D01*
X11544Y15451D01*
X11811Y15185D01*
X12077Y15451D01*
X12077Y15395D01*
X11838Y15157D01*
X12105Y14891D01*
X12167Y14923D01*
X12229Y15077D01*
X12229Y10874D01*
X12132Y10777D01*
X12096Y10689D01*
X12077Y10689D01*
X12077Y14863D01*
X11811Y15129D01*
X11783Y15101D01*
X11783Y15157D01*
X11516Y15423D01*
X11454Y15391D01*
X11404Y15267D01*
X11357Y15380D01*
X11247Y15490D01*
X11102Y15551D01*
X10946Y15551D01*
X10801Y15491D01*
X10690Y15380D01*
X10630Y15236D01*
X10630Y15079D01*
X10690Y14934D01*
X10800Y14823D01*
X10945Y14763D01*
X11101Y14763D01*
X11246Y14823D01*
X11357Y14934D01*
X11403Y15046D01*
X11454Y14923D01*
X11516Y14891D01*
X11783Y15157D01*
X11783Y15101D01*
X11544Y14863D01*
X11576Y14801D01*
X11730Y14738D01*
X11897Y14739D01*
X12045Y14801D01*
X12077Y14863D01*
X12077Y10689D01*
X11752Y10689D01*
X11752Y12448D01*
X11716Y12535D01*
X11649Y12601D01*
X11562Y12637D01*
X11502Y12637D01*
X11036Y13103D01*
X10985Y13137D01*
X10925Y13149D01*
X10806Y13149D01*
X10763Y13192D01*
X10677Y13228D01*
X10583Y13228D01*
X10496Y13192D01*
X10429Y13126D01*
X10393Y13039D01*
X10393Y12945D01*
X10429Y12858D01*
X10495Y12791D01*
X10582Y12755D01*
X10676Y12755D01*
X10763Y12791D01*
X10806Y12834D01*
X10859Y12834D01*
X11279Y12415D01*
X11279Y12354D01*
X11315Y12267D01*
X11381Y12201D01*
X11468Y12165D01*
X11562Y12165D01*
X11649Y12201D01*
X11715Y12267D01*
X11751Y12354D01*
X11752Y12448D01*
X11752Y10689D01*
X11482Y10689D01*
X10669Y11502D01*
X10669Y11562D01*
X10633Y11649D01*
X10567Y11715D01*
X10480Y11751D01*
X10386Y11752D01*
X10299Y11716D01*
X10232Y11649D01*
X10196Y11562D01*
X10196Y11468D01*
X10232Y11382D01*
X10299Y11315D01*
X10385Y11279D01*
X10446Y11279D01*
X11305Y10420D01*
X11305Y10420D01*
X11356Y10386D01*
X11356Y10386D01*
X11404Y10376D01*
X11416Y10374D01*
X11416Y10374D01*
X11416Y10374D01*
X12096Y10374D01*
X12132Y10286D01*
X12254Y10165D01*
X12413Y10098D01*
X12585Y10098D01*
X12744Y10164D01*
X12866Y10286D01*
X12932Y10445D01*
X12933Y10617D01*
X12933Y8057D01*
X12867Y8216D01*
X12745Y8338D01*
X12586Y8405D01*
X12414Y8405D01*
X12254Y8339D01*
X12132Y8217D01*
X12066Y8058D01*
X12066Y7886D01*
X12103Y7797D01*
X11844Y7539D01*
X10412Y7539D01*
X10370Y7582D01*
X10283Y7618D01*
X10189Y7618D01*
X10102Y7582D01*
X10036Y7515D01*
X10000Y7429D01*
X9999Y7335D01*
X10035Y7248D01*
X10102Y7181D01*
X10189Y7145D01*
X10283Y7145D01*
X10369Y7181D01*
X10412Y7224D01*
X11909Y7224D01*
X11970Y7236D01*
X11970Y7236D01*
X12021Y7270D01*
X12325Y7575D01*
X12413Y7538D01*
X12585Y7538D01*
X12744Y7604D01*
X12866Y7726D01*
X12932Y7885D01*
X12933Y8057D01*
X12933Y4655D01*
X12877Y4527D01*
X12870Y4166D01*
X13002Y3831D01*
X13021Y3804D01*
X13133Y3712D01*
X13751Y4330D01*
X13751Y4275D01*
X13161Y3684D01*
X13252Y3572D01*
X13583Y3428D01*
X13943Y3422D01*
X14278Y3553D01*
X14306Y3572D01*
X14397Y3684D01*
X14397Y1811D01*
X13543Y1811D01*
X13543Y236D01*
X12007Y236D01*
X12007Y2046D01*
X11948Y2191D01*
X11837Y2301D01*
X11692Y2362D01*
X11536Y2362D01*
X11391Y2302D01*
X11280Y2191D01*
X11220Y2047D01*
X11220Y1890D01*
X11280Y1745D01*
X11390Y1635D01*
X11535Y1574D01*
X11692Y1574D01*
X11836Y1634D01*
X11947Y1745D01*
X12007Y1889D01*
X12007Y2046D01*
X12007Y236D01*
X11220Y236D01*
X11220Y2046D01*
X11160Y2191D01*
X11050Y2301D01*
X10905Y2362D01*
X10748Y2362D01*
X10604Y2302D01*
X10493Y2191D01*
X10433Y2047D01*
X10433Y1890D01*
X10492Y1745D01*
X10603Y1635D01*
X10748Y1574D01*
X10904Y1574D01*
X11049Y1634D01*
X11160Y1745D01*
X11220Y1889D01*
X11220Y2046D01*
X11220Y236D01*
X10432Y236D01*
X10432Y2046D01*
X10372Y2191D01*
X10262Y2301D01*
X10255Y2304D01*
X10255Y4921D01*
X10239Y5004D01*
X10192Y5074D01*
X9862Y5404D01*
X9862Y7602D01*
X9879Y7619D01*
X9921Y7720D01*
X9921Y7830D01*
X9879Y7931D01*
X9801Y8009D01*
X9700Y8051D01*
X9591Y8051D01*
X9489Y8009D01*
X9412Y7931D01*
X9370Y7830D01*
X9370Y7721D01*
X9411Y7619D01*
X9429Y7602D01*
X9429Y5314D01*
X9445Y5232D01*
X9492Y5161D01*
X9822Y4831D01*
X9822Y2304D01*
X9816Y2302D01*
X9705Y2191D01*
X9670Y2106D01*
X9670Y2245D01*
X9670Y2292D01*
X9652Y2335D01*
X9618Y2368D01*
X9586Y2381D01*
X9586Y4869D01*
X9550Y4956D01*
X9484Y5022D01*
X9397Y5059D01*
X9336Y5059D01*
X9183Y5212D01*
X9183Y7894D01*
X9225Y7936D01*
X9261Y8023D01*
X9261Y8117D01*
X9225Y8204D01*
X9159Y8271D01*
X9072Y8307D01*
X8978Y8307D01*
X8891Y8271D01*
X8825Y8204D01*
X8789Y8118D01*
X8789Y8067D01*
X8622Y8234D01*
X8622Y9469D01*
X8664Y9511D01*
X8700Y9598D01*
X8700Y9692D01*
X8664Y9779D01*
X8598Y9845D01*
X8511Y9881D01*
X8417Y9881D01*
X8330Y9846D01*
X8267Y9782D01*
X8204Y9845D01*
X8118Y9881D01*
X8057Y9881D01*
X5669Y12270D01*
X5669Y14073D01*
X5700Y14086D01*
X5795Y14180D01*
X5807Y14209D01*
X5818Y14180D01*
X5912Y14086D01*
X6035Y14035D01*
X6168Y14035D01*
X6291Y14086D01*
X6386Y14180D01*
X6437Y14303D01*
X6437Y14436D01*
X6386Y14559D01*
X6292Y14653D01*
X6169Y14704D01*
X6036Y14704D01*
X5913Y14653D01*
X5819Y14559D01*
X5807Y14531D01*
X5795Y14559D01*
X5701Y14653D01*
X5578Y14704D01*
X5445Y14704D01*
X5322Y14653D01*
X5228Y14559D01*
X5216Y14532D01*
X5205Y14559D01*
X5111Y14653D01*
X4988Y14704D01*
X4855Y14704D01*
X4732Y14653D01*
X4638Y14559D01*
X4626Y14532D01*
X4617Y14554D01*
X4564Y14576D01*
X4536Y14548D01*
X4536Y14603D01*
X4514Y14657D01*
X4390Y14705D01*
X4257Y14703D01*
X4146Y14657D01*
X4124Y14603D01*
X4330Y14397D01*
X4536Y14603D01*
X4536Y14548D01*
X4358Y14370D01*
X4564Y14164D01*
X4617Y14185D01*
X4626Y14208D01*
X4637Y14180D01*
X4731Y14086D01*
X4854Y14035D01*
X4987Y14035D01*
X5020Y14048D01*
X5157Y13911D01*
X5157Y12007D01*
X5169Y11947D01*
X5203Y11896D01*
X7834Y9265D01*
X7834Y9205D01*
X7870Y9118D01*
X7936Y9051D01*
X8023Y9015D01*
X8117Y9015D01*
X8204Y9051D01*
X8271Y9117D01*
X8307Y9204D01*
X8307Y9251D01*
X8307Y8169D01*
X8319Y8109D01*
X8353Y8057D01*
X8612Y7798D01*
X8612Y6278D01*
X8569Y6236D01*
X8533Y6149D01*
X8533Y6055D01*
X8569Y5968D01*
X8635Y5902D01*
X8722Y5866D01*
X8816Y5866D01*
X8868Y5887D01*
X8868Y5147D01*
X8880Y5087D01*
X8914Y5036D01*
X9114Y4836D01*
X9114Y4776D01*
X9150Y4689D01*
X9216Y4622D01*
X9303Y4586D01*
X9397Y4586D01*
X9484Y4622D01*
X9550Y4688D01*
X9586Y4775D01*
X9586Y4869D01*
X9586Y2381D01*
X9575Y2386D01*
X9301Y2386D01*
X9271Y2357D01*
X9271Y1988D01*
X9279Y1988D01*
X9279Y1948D01*
X9271Y1948D01*
X9271Y1579D01*
X9301Y1550D01*
X9575Y1550D01*
X9618Y1568D01*
X9652Y1601D01*
X9670Y1644D01*
X9670Y1691D01*
X9670Y1830D01*
X9705Y1745D01*
X9815Y1635D01*
X9960Y1574D01*
X10116Y1574D01*
X10261Y1634D01*
X10372Y1745D01*
X10432Y1889D01*
X10432Y2046D01*
X10432Y236D01*
X9232Y236D01*
X9232Y1579D01*
X9232Y1948D01*
X9232Y1988D01*
X9232Y2357D01*
X9202Y2386D01*
X8928Y2386D01*
X8885Y2368D01*
X8851Y2335D01*
X8833Y2292D01*
X8833Y2245D01*
X8833Y2017D01*
X8863Y1988D01*
X9232Y1988D01*
X9232Y1948D01*
X8863Y1948D01*
X8833Y1919D01*
X8833Y1691D01*
X8833Y1644D01*
X8851Y1601D01*
X8885Y1568D01*
X8928Y1550D01*
X9202Y1550D01*
X9232Y1579D01*
X9232Y236D01*
X8494Y236D01*
X8494Y6149D01*
X8458Y6235D01*
X8391Y6302D01*
X8305Y6338D01*
X8244Y6338D01*
X7539Y7043D01*
X7539Y8976D01*
X7582Y9019D01*
X7618Y9106D01*
X7618Y9200D01*
X7582Y9287D01*
X7515Y9353D01*
X7429Y9389D01*
X7335Y9389D01*
X7248Y9353D01*
X7181Y9287D01*
X7145Y9200D01*
X7145Y9106D01*
X7181Y9019D01*
X7224Y8976D01*
X7224Y6978D01*
X7236Y6918D01*
X7270Y6866D01*
X8021Y6115D01*
X8021Y6055D01*
X8057Y5968D01*
X8123Y5902D01*
X8210Y5866D01*
X8304Y5866D01*
X8391Y5901D01*
X8458Y5968D01*
X8494Y6055D01*
X8494Y6149D01*
X8494Y236D01*
X7283Y236D01*
X7283Y2046D01*
X7223Y2191D01*
X7126Y2288D01*
X7126Y6739D01*
X7090Y6826D01*
X7047Y6869D01*
X7047Y8366D01*
X7035Y8426D01*
X7035Y8426D01*
X7001Y8477D01*
X5846Y9632D01*
X5846Y9692D01*
X5810Y9779D01*
X5744Y9845D01*
X5657Y9881D01*
X5563Y9881D01*
X5476Y9846D01*
X5410Y9779D01*
X5374Y9692D01*
X5373Y9598D01*
X5409Y9512D01*
X5476Y9445D01*
X5563Y9409D01*
X5623Y9409D01*
X6732Y8300D01*
X6732Y8267D01*
X6728Y8271D01*
X6641Y8307D01*
X6547Y8307D01*
X6460Y8271D01*
X6394Y8204D01*
X6358Y8118D01*
X6358Y8024D01*
X6394Y7937D01*
X6437Y7894D01*
X6437Y6574D01*
X6394Y6531D01*
X6358Y6444D01*
X6358Y6350D01*
X6394Y6264D01*
X6460Y6197D01*
X6547Y6161D01*
X6641Y6161D01*
X6728Y6197D01*
X6794Y6263D01*
X6830Y6350D01*
X6830Y6444D01*
X6822Y6465D01*
X6842Y6456D01*
X6936Y6456D01*
X7023Y6492D01*
X7089Y6558D01*
X7125Y6645D01*
X7126Y6739D01*
X7126Y2288D01*
X7112Y2301D01*
X6967Y2362D01*
X6811Y2362D01*
X6666Y2302D01*
X6633Y2269D01*
X6633Y5263D01*
X6598Y5350D01*
X6531Y5416D01*
X6444Y5452D01*
X6350Y5452D01*
X6264Y5416D01*
X6197Y5350D01*
X6161Y5263D01*
X6161Y5169D01*
X6197Y5082D01*
X6240Y5039D01*
X6240Y4888D01*
X5820Y4468D01*
X5760Y4468D01*
X5673Y4432D01*
X5606Y4366D01*
X5570Y4279D01*
X5570Y4185D01*
X5606Y4098D01*
X5673Y4032D01*
X5759Y3996D01*
X5853Y3996D01*
X5940Y4031D01*
X6007Y4098D01*
X6043Y4185D01*
X6043Y4245D01*
X6508Y4711D01*
X6508Y4711D01*
X6508Y4711D01*
X6543Y4762D01*
X6543Y4762D01*
X6555Y4822D01*
X6555Y5039D01*
X6597Y5082D01*
X6633Y5169D01*
X6633Y5263D01*
X6633Y2269D01*
X6555Y2191D01*
X6509Y2079D01*
X6457Y2205D01*
X6339Y2322D01*
X6185Y2386D01*
X6019Y2386D01*
X5865Y2323D01*
X5748Y2205D01*
X5684Y2052D01*
X5684Y1885D01*
X5747Y1731D01*
X5865Y1614D01*
X6018Y1550D01*
X6185Y1550D01*
X6338Y1613D01*
X6456Y1731D01*
X6509Y1857D01*
X6555Y1745D01*
X6666Y1635D01*
X6810Y1574D01*
X6967Y1574D01*
X7112Y1634D01*
X7222Y1745D01*
X7282Y1889D01*
X7283Y2046D01*
X7283Y236D01*
X5237Y236D01*
X5237Y4078D01*
X5234Y4203D01*
X5192Y4306D01*
X5140Y4325D01*
X5113Y4297D01*
X5113Y4353D01*
X5093Y4404D01*
X4976Y4450D01*
X4851Y4447D01*
X4748Y4404D01*
X4729Y4353D01*
X4921Y4161D01*
X5113Y4353D01*
X5113Y4297D01*
X4949Y4133D01*
X5140Y3942D01*
X5192Y3961D01*
X5237Y4078D01*
X5237Y236D01*
X5113Y236D01*
X5113Y3914D01*
X4921Y4106D01*
X4893Y4078D01*
X4893Y4133D01*
X4701Y4325D01*
X4650Y4306D01*
X4604Y4189D01*
X4607Y4064D01*
X4650Y3961D01*
X4701Y3942D01*
X4893Y4133D01*
X4893Y4078D01*
X4729Y3914D01*
X4748Y3862D01*
X4865Y3817D01*
X4990Y3820D01*
X5093Y3862D01*
X5113Y3914D01*
X5113Y236D01*
X4536Y236D01*
X4536Y14136D01*
X4330Y14342D01*
X4302Y14314D01*
X4302Y14370D01*
X4096Y14576D01*
X4043Y14554D01*
X4035Y14533D01*
X4024Y14559D01*
X3930Y14653D01*
X3807Y14704D01*
X3674Y14704D01*
X3551Y14653D01*
X3457Y14559D01*
X3445Y14531D01*
X3433Y14559D01*
X3339Y14653D01*
X3216Y14704D01*
X3083Y14704D01*
X2960Y14653D01*
X2866Y14559D01*
X2815Y14436D01*
X2814Y14303D01*
X2865Y14180D01*
X2959Y14086D01*
X3082Y14035D01*
X3215Y14035D01*
X3338Y14086D01*
X3433Y14180D01*
X3445Y14209D01*
X3456Y14180D01*
X3550Y14086D01*
X3673Y14035D01*
X3806Y14035D01*
X3929Y14086D01*
X4024Y14180D01*
X4034Y14206D01*
X4043Y14185D01*
X4096Y14164D01*
X4302Y14370D01*
X4302Y14314D01*
X4124Y14136D01*
X4146Y14082D01*
X4270Y14034D01*
X4403Y14036D01*
X4514Y14082D01*
X4536Y14136D01*
X4536Y236D01*
X4355Y236D01*
X4355Y7366D01*
X4291Y7519D01*
X4174Y7637D01*
X4020Y7701D01*
X3854Y7701D01*
X3700Y7638D01*
X3582Y7520D01*
X3574Y7500D01*
X2089Y7500D01*
X2089Y14337D01*
X1957Y14672D01*
X1939Y14699D01*
X1826Y14791D01*
X1799Y14763D01*
X1799Y14819D01*
X1707Y14931D01*
X1377Y15075D01*
X1017Y15081D01*
X681Y14950D01*
X654Y14931D01*
X563Y14819D01*
X1181Y14201D01*
X1799Y14819D01*
X1799Y14763D01*
X1208Y14173D01*
X1826Y13555D01*
X1939Y13646D01*
X2083Y13976D01*
X2089Y14337D01*
X2089Y7500D01*
X1937Y7500D01*
X1929Y7519D01*
X1811Y7637D01*
X1799Y7643D01*
X1799Y13527D01*
X1181Y14145D01*
X1153Y14117D01*
X1153Y14173D01*
X535Y14791D01*
X422Y14699D01*
X278Y14369D01*
X272Y14009D01*
X404Y13674D01*
X422Y13646D01*
X535Y13555D01*
X1153Y14173D01*
X1153Y14117D01*
X563Y13527D01*
X654Y13414D01*
X984Y13270D01*
X1344Y13264D01*
X1680Y13396D01*
X1707Y13414D01*
X1799Y13527D01*
X1799Y7643D01*
X1658Y7701D01*
X1492Y7701D01*
X1338Y7638D01*
X1220Y7520D01*
X1156Y7366D01*
X1156Y7200D01*
X1220Y7046D01*
X1337Y6929D01*
X1464Y6876D01*
X1352Y6830D01*
X1241Y6719D01*
X1181Y6575D01*
X1181Y6418D01*
X1240Y6273D01*
X1351Y6162D01*
X1496Y6102D01*
X1652Y6102D01*
X1797Y6162D01*
X1908Y6273D01*
X1968Y6417D01*
X1968Y6574D01*
X1908Y6719D01*
X1798Y6829D01*
X1685Y6876D01*
X1811Y6928D01*
X1929Y7046D01*
X1937Y7066D01*
X3574Y7066D01*
X3582Y7046D01*
X3699Y6929D01*
X3826Y6876D01*
X3714Y6830D01*
X3603Y6719D01*
X3543Y6575D01*
X3543Y6418D01*
X3603Y6273D01*
X3713Y6162D01*
X3858Y6102D01*
X4014Y6102D01*
X4159Y6162D01*
X4270Y6273D01*
X4330Y6417D01*
X4330Y6574D01*
X4270Y6719D01*
X4160Y6829D01*
X4047Y6876D01*
X4173Y6928D01*
X4291Y7046D01*
X4355Y7199D01*
X4355Y7366D01*
X4355Y236D01*
X4133Y236D01*
X4133Y2046D01*
X4073Y2191D01*
X3963Y2301D01*
X3818Y2362D01*
X3661Y2362D01*
X3517Y2302D01*
X3406Y2191D01*
X3359Y2079D01*
X3307Y2205D01*
X3189Y2322D01*
X3036Y2386D01*
X2869Y2386D01*
X2716Y2323D01*
X2598Y2205D01*
X2534Y2052D01*
X2534Y1885D01*
X2598Y1731D01*
X2715Y1614D01*
X2869Y1550D01*
X3035Y1550D01*
X3189Y1613D01*
X3307Y1731D01*
X3359Y1857D01*
X3405Y1745D01*
X3516Y1635D01*
X3661Y1574D01*
X3817Y1574D01*
X3962Y1634D01*
X4073Y1745D01*
X4133Y1889D01*
X4133Y2046D01*
X4133Y236D01*
X2089Y236D01*
X2089Y4494D01*
X1957Y4829D01*
X1939Y4857D01*
X1826Y4948D01*
X1799Y4920D01*
X1799Y4976D01*
X1707Y5089D01*
X1377Y5232D01*
X1017Y5239D01*
X681Y5107D01*
X654Y5089D01*
X563Y4976D01*
X1181Y4358D01*
X1799Y4976D01*
X1799Y4920D01*
X1208Y4330D01*
X1826Y3712D01*
X1939Y3804D01*
X2083Y4134D01*
X2089Y4494D01*
X2089Y236D01*
X1799Y236D01*
X1799Y3684D01*
X1181Y4302D01*
X1153Y4275D01*
X1153Y4330D01*
X535Y4948D01*
X422Y4857D01*
X278Y4527D01*
X272Y4166D01*
X404Y3831D01*
X422Y3804D01*
X535Y3712D01*
X1153Y4330D01*
X1153Y4275D01*
X563Y3684D01*
X654Y3572D01*
X984Y3428D01*
X1344Y3422D01*
X1680Y3553D01*
X1707Y3572D01*
X1799Y3684D01*
X1799Y236D01*
X1417Y236D01*
X1417Y1811D01*
X236Y1811D01*
X236Y16125D01*
X1197Y17086D01*
X13763Y17086D01*
X14724Y16125D01*
X14724Y1811D01*
X14724Y1811D01*
G37*
G54D21*
X14724Y1811D02*
X14705Y1811D01*
X14705Y7888D01*
X14705Y10448D01*
X14704Y10620D01*
X14688Y10659D01*
X14688Y14337D01*
X14556Y14672D01*
X14537Y14699D01*
X14425Y14791D01*
X14397Y14763D01*
X14397Y14819D01*
X14306Y14931D01*
X13975Y15075D01*
X13615Y15081D01*
X13280Y14950D01*
X13252Y14931D01*
X13161Y14819D01*
X13779Y14201D01*
X14397Y14819D01*
X14397Y14763D01*
X13807Y14173D01*
X14425Y13555D01*
X14537Y13646D01*
X14681Y13976D01*
X14688Y14337D01*
X14688Y10659D01*
X14640Y10775D01*
X14576Y10809D01*
X14548Y10781D01*
X14548Y10836D01*
X14515Y10900D01*
X14397Y10948D01*
X14397Y13527D01*
X13779Y14145D01*
X13751Y14117D01*
X13751Y14173D01*
X13133Y14791D01*
X13021Y14699D01*
X12877Y14369D01*
X12870Y14009D01*
X13002Y13674D01*
X13021Y13646D01*
X13133Y13555D01*
X13751Y14173D01*
X13751Y14117D01*
X13161Y13527D01*
X13252Y13414D01*
X13583Y13270D01*
X13943Y13264D01*
X14278Y13396D01*
X14306Y13414D01*
X14397Y13527D01*
X14397Y10948D01*
X14355Y10965D01*
X14183Y10964D01*
X14028Y10900D01*
X13994Y10836D01*
X14271Y10559D01*
X14548Y10836D01*
X14548Y10781D01*
X14299Y10531D01*
X14576Y10254D01*
X14640Y10288D01*
X14705Y10448D01*
X14705Y7888D01*
X14704Y8060D01*
X14640Y8215D01*
X14576Y8249D01*
X14548Y8221D01*
X14548Y8276D01*
X14548Y10227D01*
X14271Y10504D01*
X14243Y10476D01*
X14243Y10531D01*
X13966Y10809D01*
X13903Y10775D01*
X13838Y10615D01*
X13839Y10443D01*
X13903Y10288D01*
X13966Y10254D01*
X14243Y10531D01*
X14243Y10476D01*
X13994Y10227D01*
X14028Y10163D01*
X14187Y10098D01*
X14360Y10099D01*
X14515Y10163D01*
X14548Y10227D01*
X14548Y8276D01*
X14515Y8340D01*
X14355Y8405D01*
X14183Y8404D01*
X14028Y8340D01*
X13994Y8276D01*
X14271Y7999D01*
X14548Y8276D01*
X14548Y8221D01*
X14299Y7971D01*
X14576Y7694D01*
X14640Y7728D01*
X14705Y7888D01*
X14705Y1811D01*
X14688Y1811D01*
X14688Y4494D01*
X14556Y4829D01*
X14548Y4840D01*
X14548Y7667D01*
X14271Y7944D01*
X14243Y7916D01*
X14243Y7971D01*
X13966Y8249D01*
X13903Y8215D01*
X13838Y8055D01*
X13839Y7883D01*
X13903Y7728D01*
X13966Y7694D01*
X14243Y7971D01*
X14243Y7916D01*
X13994Y7667D01*
X14028Y7603D01*
X14187Y7538D01*
X14360Y7539D01*
X14515Y7603D01*
X14548Y7667D01*
X14548Y4840D01*
X14537Y4857D01*
X14425Y4948D01*
X14397Y4920D01*
X14397Y4976D01*
X14306Y5089D01*
X13975Y5232D01*
X13615Y5239D01*
X13280Y5107D01*
X13252Y5089D01*
X13161Y4976D01*
X13779Y4358D01*
X14397Y4976D01*
X14397Y4920D01*
X13807Y4330D01*
X14425Y3712D01*
X14537Y3804D01*
X14681Y4134D01*
X14688Y4494D01*
X14688Y1811D01*
X14397Y1811D01*
X14397Y3684D01*
X13779Y4302D01*
X13751Y4275D01*
X13751Y4330D01*
X13133Y4948D01*
X13021Y4857D01*
X12933Y4655D01*
X12933Y8057D01*
X12933Y10617D01*
X12867Y10776D01*
X12745Y10898D01*
X12586Y10965D01*
X12414Y10965D01*
X12254Y10899D01*
X12229Y10874D01*
X12229Y15077D01*
X12228Y15243D01*
X12167Y15391D01*
X12105Y15423D01*
X12077Y15395D01*
X12077Y15451D01*
X12045Y15513D01*
X11891Y15576D01*
X11724Y15575D01*
X11576Y15513D01*
X11544Y15451D01*
X11811Y15185D01*
X12077Y15451D01*
X12077Y15395D01*
X11838Y15157D01*
X12105Y14891D01*
X12167Y14923D01*
X12229Y15077D01*
X12229Y10874D01*
X12132Y10777D01*
X12096Y10689D01*
X12077Y10689D01*
X12077Y14863D01*
X11811Y15129D01*
X11783Y15101D01*
X11783Y15157D01*
X11516Y15423D01*
X11454Y15391D01*
X11404Y15267D01*
X11357Y15380D01*
X11247Y15490D01*
X11102Y15551D01*
X10946Y15551D01*
X10801Y15491D01*
X10690Y15380D01*
X10630Y15236D01*
X10630Y15079D01*
X10690Y14934D01*
X10800Y14823D01*
X10945Y14763D01*
X11101Y14763D01*
X11246Y14823D01*
X11357Y14934D01*
X11403Y15046D01*
X11454Y14923D01*
X11516Y14891D01*
X11783Y15157D01*
X11783Y15101D01*
X11544Y14863D01*
X11576Y14801D01*
X11730Y14738D01*
X11897Y14739D01*
X12045Y14801D01*
X12077Y14863D01*
X12077Y10689D01*
X11752Y10689D01*
X11752Y12448D01*
X11716Y12535D01*
X11649Y12601D01*
X11562Y12637D01*
X11502Y12637D01*
X11036Y13103D01*
X10985Y13137D01*
X10925Y13149D01*
X10806Y13149D01*
X10763Y13192D01*
X10677Y13228D01*
X10583Y13228D01*
X10496Y13192D01*
X10429Y13126D01*
X10393Y13039D01*
X10393Y12945D01*
X10429Y12858D01*
X10495Y12791D01*
X10582Y12755D01*
X10676Y12755D01*
X10763Y12791D01*
X10806Y12834D01*
X10859Y12834D01*
X11279Y12415D01*
X11279Y12354D01*
X11315Y12267D01*
X11381Y12201D01*
X11468Y12165D01*
X11562Y12165D01*
X11649Y12201D01*
X11715Y12267D01*
X11751Y12354D01*
X11752Y12448D01*
X11752Y10689D01*
X11482Y10689D01*
X10669Y11502D01*
X10669Y11562D01*
X10633Y11649D01*
X10567Y11715D01*
X10480Y11751D01*
X10386Y11752D01*
X10299Y11716D01*
X10232Y11649D01*
X10196Y11562D01*
X10196Y11468D01*
X10232Y11382D01*
X10299Y11315D01*
X10385Y11279D01*
X10446Y11279D01*
X11305Y10420D01*
X11305Y10420D01*
X11356Y10386D01*
X11356Y10386D01*
X11404Y10376D01*
X11416Y10374D01*
X11416Y10374D01*
X11416Y10374D01*
X12096Y10374D01*
X12132Y10286D01*
X12254Y10165D01*
X12413Y10098D01*
X12585Y10098D01*
X12744Y10164D01*
X12866Y10286D01*
X12932Y10445D01*
X12933Y10617D01*
X12933Y8057D01*
X12867Y8216D01*
X12745Y8338D01*
X12586Y8405D01*
X12414Y8405D01*
X12254Y8339D01*
X12132Y8217D01*
X12066Y8058D01*
X12066Y7886D01*
X12103Y7797D01*
X11844Y7539D01*
X10412Y7539D01*
X10370Y7582D01*
X10283Y7618D01*
X10189Y7618D01*
X10102Y7582D01*
X10036Y7515D01*
X10000Y7429D01*
X9999Y7335D01*
X10035Y7248D01*
X10102Y7181D01*
X10189Y7145D01*
X10283Y7145D01*
X10369Y7181D01*
X10412Y7224D01*
X11909Y7224D01*
X11970Y7236D01*
X11970Y7236D01*
X12021Y7270D01*
X12325Y7575D01*
X12413Y7538D01*
X12585Y7538D01*
X12744Y7604D01*
X12866Y7726D01*
X12932Y7885D01*
X12933Y8057D01*
X12933Y4655D01*
X12877Y4527D01*
X12870Y4166D01*
X13002Y3831D01*
X13021Y3804D01*
X13133Y3712D01*
X13751Y4330D01*
X13751Y4275D01*
X13161Y3684D01*
X13252Y3572D01*
X13583Y3428D01*
X13943Y3422D01*
X14278Y3553D01*
X14306Y3572D01*
X14397Y3684D01*
X14397Y1811D01*
X13543Y1811D01*
X13543Y236D01*
X12007Y236D01*
X12007Y2046D01*
X11948Y2191D01*
X11837Y2301D01*
X11692Y2362D01*
X11536Y2362D01*
X11391Y2302D01*
X11280Y2191D01*
X11220Y2047D01*
X11220Y1890D01*
X11280Y1745D01*
X11390Y1635D01*
X11535Y1574D01*
X11692Y1574D01*
X11836Y1634D01*
X11947Y1745D01*
X12007Y1889D01*
X12007Y2046D01*
X12007Y236D01*
X11220Y236D01*
X11220Y2046D01*
X11160Y2191D01*
X11050Y2301D01*
X10905Y2362D01*
X10748Y2362D01*
X10604Y2302D01*
X10493Y2191D01*
X10433Y2047D01*
X10433Y1890D01*
X10492Y1745D01*
X10603Y1635D01*
X10748Y1574D01*
X10904Y1574D01*
X11049Y1634D01*
X11160Y1745D01*
X11220Y1889D01*
X11220Y2046D01*
X11220Y236D01*
X10432Y236D01*
X10432Y2046D01*
X10372Y2191D01*
X10262Y2301D01*
X10255Y2304D01*
X10255Y4921D01*
X10239Y5004D01*
X10192Y5074D01*
X9862Y5404D01*
X9862Y7602D01*
X9879Y7619D01*
X9921Y7720D01*
X9921Y7830D01*
X9879Y7931D01*
X9801Y8009D01*
X9700Y8051D01*
X9591Y8051D01*
X9489Y8009D01*
X9412Y7931D01*
X9370Y7830D01*
X9370Y7721D01*
X9411Y7619D01*
X9429Y7602D01*
X9429Y5314D01*
X9445Y5232D01*
X9492Y5161D01*
X9822Y4831D01*
X9822Y2304D01*
X9816Y2302D01*
X9705Y2191D01*
X9670Y2106D01*
X9670Y2245D01*
X9670Y2292D01*
X9652Y2335D01*
X9618Y2368D01*
X9586Y2381D01*
X9586Y4869D01*
X9550Y4956D01*
X9484Y5022D01*
X9397Y5059D01*
X9336Y5059D01*
X9183Y5212D01*
X9183Y7894D01*
X9225Y7936D01*
X9261Y8023D01*
X9261Y8117D01*
X9225Y8204D01*
X9159Y8271D01*
X9072Y8307D01*
X8978Y8307D01*
X8891Y8271D01*
X8825Y8204D01*
X8789Y8118D01*
X8789Y8067D01*
X8622Y8234D01*
X8622Y9469D01*
X8664Y9511D01*
X8700Y9598D01*
X8700Y9692D01*
X8664Y9779D01*
X8598Y9845D01*
X8511Y9881D01*
X8417Y9881D01*
X8330Y9846D01*
X8267Y9782D01*
X8204Y9845D01*
X8118Y9881D01*
X8057Y9881D01*
X5669Y12270D01*
X5669Y14073D01*
X5700Y14086D01*
X5795Y14180D01*
X5807Y14209D01*
X5818Y14180D01*
X5912Y14086D01*
X6035Y14035D01*
X6168Y14035D01*
X6291Y14086D01*
X6386Y14180D01*
X6437Y14303D01*
X6437Y14436D01*
X6386Y14559D01*
X6292Y14653D01*
X6169Y14704D01*
X6036Y14704D01*
X5913Y14653D01*
X5819Y14559D01*
X5807Y14531D01*
X5795Y14559D01*
X5701Y14653D01*
X5578Y14704D01*
X5445Y14704D01*
X5322Y14653D01*
X5228Y14559D01*
X5216Y14532D01*
X5205Y14559D01*
X5111Y14653D01*
X4988Y14704D01*
X4855Y14704D01*
X4732Y14653D01*
X4638Y14559D01*
X4626Y14532D01*
X4617Y14554D01*
X4564Y14576D01*
X4536Y14548D01*
X4536Y14603D01*
X4514Y14657D01*
X4390Y14705D01*
X4257Y14703D01*
X4146Y14657D01*
X4124Y14603D01*
X4330Y14397D01*
X4536Y14603D01*
X4536Y14548D01*
X4358Y14370D01*
X4564Y14164D01*
X4617Y14185D01*
X4626Y14208D01*
X4637Y14180D01*
X4731Y14086D01*
X4854Y14035D01*
X4987Y14035D01*
X5020Y14048D01*
X5157Y13911D01*
X5157Y12007D01*
X5169Y11947D01*
X5203Y11896D01*
X7834Y9265D01*
X7834Y9205D01*
X7870Y9118D01*
X7936Y9051D01*
X8023Y9015D01*
X8117Y9015D01*
X8204Y9051D01*
X8271Y9117D01*
X8307Y9204D01*
X8307Y9251D01*
X8307Y8169D01*
X8319Y8109D01*
X8353Y8057D01*
X8612Y7798D01*
X8612Y6278D01*
X8569Y6236D01*
X8533Y6149D01*
X8533Y6055D01*
X8569Y5968D01*
X8635Y5902D01*
X8722Y5866D01*
X8816Y5866D01*
X8868Y5887D01*
X8868Y5147D01*
X8880Y5087D01*
X8914Y5036D01*
X9114Y4836D01*
X9114Y4776D01*
X9150Y4689D01*
X9216Y4622D01*
X9303Y4586D01*
X9397Y4586D01*
X9484Y4622D01*
X9550Y4688D01*
X9586Y4775D01*
X9586Y4869D01*
X9586Y2381D01*
X9575Y2386D01*
X9301Y2386D01*
X9271Y2357D01*
X9271Y1988D01*
X9279Y1988D01*
X9279Y1948D01*
X9271Y1948D01*
X9271Y1579D01*
X9301Y1550D01*
X9575Y1550D01*
X9618Y1568D01*
X9652Y1601D01*
X9670Y1644D01*
X9670Y1691D01*
X9670Y1830D01*
X9705Y1745D01*
X9815Y1635D01*
X9960Y1574D01*
X10116Y1574D01*
X10261Y1634D01*
X10372Y1745D01*
X10432Y1889D01*
X10432Y2046D01*
X10432Y236D01*
X9232Y236D01*
X9232Y1579D01*
X9232Y1948D01*
X9232Y1988D01*
X9232Y2357D01*
X9202Y2386D01*
X8928Y2386D01*
X8885Y2368D01*
X8851Y2335D01*
X8833Y2292D01*
X8833Y2245D01*
X8833Y2017D01*
X8863Y1988D01*
X9232Y1988D01*
X9232Y1948D01*
X8863Y1948D01*
X8833Y1919D01*
X8833Y1691D01*
X8833Y1644D01*
X8851Y1601D01*
X8885Y1568D01*
X8928Y1550D01*
X9202Y1550D01*
X9232Y1579D01*
X9232Y236D01*
X8494Y236D01*
X8494Y6149D01*
X8458Y6235D01*
X8391Y6302D01*
X8305Y6338D01*
X8244Y6338D01*
X7539Y7043D01*
X7539Y8976D01*
X7582Y9019D01*
X7618Y9106D01*
X7618Y9200D01*
X7582Y9287D01*
X7515Y9353D01*
X7429Y9389D01*
X7335Y9389D01*
X7248Y9353D01*
X7181Y9287D01*
X7145Y9200D01*
X7145Y9106D01*
X7181Y9019D01*
X7224Y8976D01*
X7224Y6978D01*
X7236Y6918D01*
X7270Y6866D01*
X8021Y6115D01*
X8021Y6055D01*
X8057Y5968D01*
X8123Y5902D01*
X8210Y5866D01*
X8304Y5866D01*
X8391Y5901D01*
X8458Y5968D01*
X8494Y6055D01*
X8494Y6149D01*
X8494Y236D01*
X7283Y236D01*
X7283Y2046D01*
X7223Y2191D01*
X7126Y2288D01*
X7126Y6739D01*
X7090Y6826D01*
X7047Y6869D01*
X7047Y8366D01*
X7035Y8426D01*
X7035Y8426D01*
X7001Y8477D01*
X5846Y9632D01*
X5846Y9692D01*
X5810Y9779D01*
X5744Y9845D01*
X5657Y9881D01*
X5563Y9881D01*
X5476Y9846D01*
X5410Y9779D01*
X5374Y9692D01*
X5373Y9598D01*
X5409Y9512D01*
X5476Y9445D01*
X5563Y9409D01*
X5623Y9409D01*
X6732Y8300D01*
X6732Y8267D01*
X6728Y8271D01*
X6641Y8307D01*
X6547Y8307D01*
X6460Y8271D01*
X6394Y8204D01*
X6358Y8118D01*
X6358Y8024D01*
X6394Y7937D01*
X6437Y7894D01*
X6437Y6574D01*
X6394Y6531D01*
X6358Y6444D01*
X6358Y6350D01*
X6394Y6264D01*
X6460Y6197D01*
X6547Y6161D01*
X6641Y6161D01*
X6728Y6197D01*
X6794Y6263D01*
X6830Y6350D01*
X6830Y6444D01*
X6822Y6465D01*
X6842Y6456D01*
X6936Y6456D01*
X7023Y6492D01*
X7089Y6558D01*
X7125Y6645D01*
X7126Y6739D01*
X7126Y2288D01*
X7112Y2301D01*
X6967Y2362D01*
X6811Y2362D01*
X6666Y2302D01*
X6633Y2269D01*
X6633Y5263D01*
X6598Y5350D01*
X6531Y5416D01*
X6444Y5452D01*
X6350Y5452D01*
X6264Y5416D01*
X6197Y5350D01*
X6161Y5263D01*
X6161Y5169D01*
X6197Y5082D01*
X6240Y5039D01*
X6240Y4888D01*
X5820Y4468D01*
X5760Y4468D01*
X5673Y4432D01*
X5606Y4366D01*
X5570Y4279D01*
X5570Y4185D01*
X5606Y4098D01*
X5673Y4032D01*
X5759Y3996D01*
X5853Y3996D01*
X5940Y4031D01*
X6007Y4098D01*
X6043Y4185D01*
X6043Y4245D01*
X6508Y4711D01*
X6508Y4711D01*
X6508Y4711D01*
X6543Y4762D01*
X6543Y4762D01*
X6555Y4822D01*
X6555Y5039D01*
X6597Y5082D01*
X6633Y5169D01*
X6633Y5263D01*
X6633Y2269D01*
X6555Y2191D01*
X6509Y2079D01*
X6457Y2205D01*
X6339Y2322D01*
X6185Y2386D01*
X6019Y2386D01*
X5865Y2323D01*
X5748Y2205D01*
X5684Y2052D01*
X5684Y1885D01*
X5747Y1731D01*
X5865Y1614D01*
X6018Y1550D01*
X6185Y1550D01*
X6338Y1613D01*
X6456Y1731D01*
X6509Y1857D01*
X6555Y1745D01*
X6666Y1635D01*
X6810Y1574D01*
X6967Y1574D01*
X7112Y1634D01*
X7222Y1745D01*
X7282Y1889D01*
X7283Y2046D01*
X7283Y236D01*
X5237Y236D01*
X5237Y4078D01*
X5234Y4203D01*
X5192Y4306D01*
X5140Y4325D01*
X5113Y4297D01*
X5113Y4353D01*
X5093Y4404D01*
X4976Y4450D01*
X4851Y4447D01*
X4748Y4404D01*
X4729Y4353D01*
X4921Y4161D01*
X5113Y4353D01*
X5113Y4297D01*
X4949Y4133D01*
X5140Y3942D01*
X5192Y3961D01*
X5237Y4078D01*
X5237Y236D01*
X5113Y236D01*
X5113Y3914D01*
X4921Y4106D01*
X4893Y4078D01*
X4893Y4133D01*
X4701Y4325D01*
X4650Y4306D01*
X4604Y4189D01*
X4607Y4064D01*
X4650Y3961D01*
X4701Y3942D01*
X4893Y4133D01*
X4893Y4078D01*
X4729Y3914D01*
X4748Y3862D01*
X4865Y3817D01*
X4990Y3820D01*
X5093Y3862D01*
X5113Y3914D01*
X5113Y236D01*
X4536Y236D01*
X4536Y14136D01*
X4330Y14342D01*
X4302Y14314D01*
X4302Y14370D01*
X4096Y14576D01*
X4043Y14554D01*
X4035Y14533D01*
X4024Y14559D01*
X3930Y14653D01*
X3807Y14704D01*
X3674Y14704D01*
X3551Y14653D01*
X3457Y14559D01*
X3445Y14531D01*
X3433Y14559D01*
X3339Y14653D01*
X3216Y14704D01*
X3083Y14704D01*
X2960Y14653D01*
X2866Y14559D01*
X2815Y14436D01*
X2814Y14303D01*
X2865Y14180D01*
X2959Y14086D01*
X3082Y14035D01*
X3215Y14035D01*
X3338Y14086D01*
X3433Y14180D01*
X3445Y14209D01*
X3456Y14180D01*
X3550Y14086D01*
X3673Y14035D01*
X3806Y14035D01*
X3929Y14086D01*
X4024Y14180D01*
X4034Y14206D01*
X4043Y14185D01*
X4096Y14164D01*
X4302Y14370D01*
X4302Y14314D01*
X4124Y14136D01*
X4146Y14082D01*
X4270Y14034D01*
X4403Y14036D01*
X4514Y14082D01*
X4536Y14136D01*
X4536Y236D01*
X4355Y236D01*
X4355Y7366D01*
X4291Y7519D01*
X4174Y7637D01*
X4020Y7701D01*
X3854Y7701D01*
X3700Y7638D01*
X3582Y7520D01*
X3574Y7500D01*
X2089Y7500D01*
X2089Y14337D01*
X1957Y14672D01*
X1939Y14699D01*
X1826Y14791D01*
X1799Y14763D01*
X1799Y14819D01*
X1707Y14931D01*
X1377Y15075D01*
X1017Y15081D01*
X681Y14950D01*
X654Y14931D01*
X563Y14819D01*
X1181Y14201D01*
X1799Y14819D01*
X1799Y14763D01*
X1208Y14173D01*
X1826Y13555D01*
X1939Y13646D01*
X2083Y13976D01*
X2089Y14337D01*
X2089Y7500D01*
X1937Y7500D01*
X1929Y7519D01*
X1811Y7637D01*
X1799Y7643D01*
X1799Y13527D01*
X1181Y14145D01*
X1153Y14117D01*
X1153Y14173D01*
X535Y14791D01*
X422Y14699D01*
X278Y14369D01*
X272Y14009D01*
X404Y13674D01*
X422Y13646D01*
X535Y13555D01*
X1153Y14173D01*
X1153Y14117D01*
X563Y13527D01*
X654Y13414D01*
X984Y13270D01*
X1344Y13264D01*
X1680Y13396D01*
X1707Y13414D01*
X1799Y13527D01*
X1799Y7643D01*
X1658Y7701D01*
X1492Y7701D01*
X1338Y7638D01*
X1220Y7520D01*
X1156Y7366D01*
X1156Y7200D01*
X1220Y7046D01*
X1337Y6929D01*
X1464Y6876D01*
X1352Y6830D01*
X1241Y6719D01*
X1181Y6575D01*
X1181Y6418D01*
X1240Y6273D01*
X1351Y6162D01*
X1496Y6102D01*
X1652Y6102D01*
X1797Y6162D01*
X1908Y6273D01*
X1968Y6417D01*
X1968Y6574D01*
X1908Y6719D01*
X1798Y6829D01*
X1685Y6876D01*
X1811Y6928D01*
X1929Y7046D01*
X1937Y7066D01*
X3574Y7066D01*
X3582Y7046D01*
X3699Y6929D01*
X3826Y6876D01*
X3714Y6830D01*
X3603Y6719D01*
X3543Y6575D01*
X3543Y6418D01*
X3603Y6273D01*
X3713Y6162D01*
X3858Y6102D01*
X4014Y6102D01*
X4159Y6162D01*
X4270Y6273D01*
X4330Y6417D01*
X4330Y6574D01*
X4270Y6719D01*
X4160Y6829D01*
X4047Y6876D01*
X4173Y6928D01*
X4291Y7046D01*
X4355Y7199D01*
X4355Y7366D01*
X4355Y236D01*
X4133Y236D01*
X4133Y2046D01*
X4073Y2191D01*
X3963Y2301D01*
X3818Y2362D01*
X3661Y2362D01*
X3517Y2302D01*
X3406Y2191D01*
X3359Y2079D01*
X3307Y2205D01*
X3189Y2322D01*
X3036Y2386D01*
X2869Y2386D01*
X2716Y2323D01*
X2598Y2205D01*
X2534Y2052D01*
X2534Y1885D01*
X2598Y1731D01*
X2715Y1614D01*
X2869Y1550D01*
X3035Y1550D01*
X3189Y1613D01*
X3307Y1731D01*
X3359Y1857D01*
X3405Y1745D01*
X3516Y1635D01*
X3661Y1574D01*
X3817Y1574D01*
X3962Y1634D01*
X4073Y1745D01*
X4133Y1889D01*
X4133Y2046D01*
X4133Y236D01*
X2089Y236D01*
X2089Y4494D01*
X1957Y4829D01*
X1939Y4857D01*
X1826Y4948D01*
X1799Y4920D01*
X1799Y4976D01*
X1707Y5089D01*
X1377Y5232D01*
X1017Y5239D01*
X681Y5107D01*
X654Y5089D01*
X563Y4976D01*
X1181Y4358D01*
X1799Y4976D01*
X1799Y4920D01*
X1208Y4330D01*
X1826Y3712D01*
X1939Y3804D01*
X2083Y4134D01*
X2089Y4494D01*
X2089Y236D01*
X1799Y236D01*
X1799Y3684D01*
X1181Y4302D01*
X1153Y4275D01*
X1153Y4330D01*
X535Y4948D01*
X422Y4857D01*
X278Y4527D01*
X272Y4166D01*
X404Y3831D01*
X422Y3804D01*
X535Y3712D01*
X1153Y4330D01*
X1153Y4275D01*
X563Y3684D01*
X654Y3572D01*
X984Y3428D01*
X1344Y3422D01*
X1680Y3553D01*
X1707Y3572D01*
X1799Y3684D01*
X1799Y236D01*
X1417Y236D01*
X1417Y1811D01*
X236Y1811D01*
X236Y16125D01*
X1197Y17086D01*
X13763Y17086D01*
X14724Y16125D01*
X14724Y1811D01*
M02*
