G04 (created by PCBNEW (2013-07-07 BZR 4022)-stable) date 2026/01/09 9:11:12*
%MOIN*%
G04 Gerber Fmt 3.4, Leading zero omitted, Abs format*
%FSLAX34Y34*%
G01*
G70*
G90*
G04 APERTURE LIST*
%ADD10C,0.00590551*%
%ADD11C,0.00393701*%
%ADD12C,0.19685*%
%ADD13C,0.0787402*%
%ADD14R,0.0590551X0.0590551*%
%ADD15C,0.0393701*%
G04 APERTURE END LIST*
G54D10*
G54D11*
X0Y0D02*
G75*
G03X0Y0I0J0D01*
G74*
G01*
X0Y0D02*
X0Y0D01*
X0Y0D02*
X0Y0D01*
X7480Y5905D02*
G75*
G03X5905Y7480I-1574J0D01*
G74*
G01*
X5905Y7480D02*
G75*
G03X4330Y5905I0J-1574D01*
G74*
G01*
X0Y5905D02*
X4330Y5905D01*
X0Y0D02*
X0Y5905D01*
X11811Y5905D02*
X7480Y5905D01*
X11811Y0D02*
X11811Y5905D01*
X0Y0D02*
X11811Y0D01*
G54D12*
X1968Y3149D03*
X9842Y3149D03*
G54D13*
X5405Y5905D03*
X6405Y5905D03*
G54D14*
X4330Y3937D03*
X4330Y4724D03*
G54D13*
X5413Y2755D03*
X6397Y2755D03*
G54D15*
X4330Y4724D02*
X4330Y4830D01*
X4330Y4830D02*
X5405Y5905D01*
X6405Y5905D02*
X6405Y4224D01*
X6397Y4216D02*
X6397Y2755D01*
X6405Y4224D02*
X6397Y4216D01*
X4330Y3937D02*
X4330Y3838D01*
X4330Y3838D02*
X5413Y2755D01*
M02*
